<svg width="24" height="24" viewBox="0 0 24 24" fill="none" xmlns="http://www.w3.org/2000/svg">
<path d="M4.14577 7.2853C3.8388 7.28469 3.5442 7.16611 3.32467 6.95481C3.10813 6.73932 2.98522 6.44932 2.98195 6.14617C2.98124 5.99566 3.01121 5.84654 3.07008 5.70764C3.12895 5.56874 3.21552 5.44289 3.32467 5.33753C3.43165 5.23004 3.55944 5.14479 3.70048 5.08681C3.84152 5.02884 3.99294 4.99932 4.14577 5.00001H19.8538C20.0065 5.0001 20.1577 5.02998 20.2986 5.08791C20.4396 5.14584 20.5675 5.23068 20.6749 5.33753C20.8928 5.55217 21.0159 5.84271 21.0176 6.14617C21.0108 6.44857 20.8884 6.73731 20.6749 6.95481C20.4554 7.16611 20.1608 7.28469 19.8538 7.2853H4.14577Z" fill="white"/>
<path d="M4.14577 19C3.8388 18.9994 3.5442 18.8808 3.32467 18.6695C3.10813 18.454 2.98522 18.164 2.98195 17.8609C2.98124 17.7104 3.01121 17.5612 3.07008 17.4223C3.12895 17.2834 3.21552 17.1576 3.32467 17.0522C3.43165 16.9447 3.55944 16.8595 3.70048 16.8015C3.84152 16.7435 3.99294 16.714 4.14577 16.7147H15.834C16.1421 16.7165 16.437 16.8379 16.6549 17.0524C16.8727 17.267 16.9959 17.5575 16.9978 17.8609C16.9978 18.011 16.9677 18.1598 16.9091 18.2984C16.8505 18.4371 16.7647 18.563 16.6565 18.6688C16.5483 18.7747 16.42 18.8585 16.2788 18.9153C16.1377 18.9721 15.9865 19.0009 15.834 19H4.14577Z" fill="white"/>
<path d="M4.14586 13.0372C3.84286 13.0441 3.54878 12.9358 3.32476 12.7348C3.21411 12.6247 3.12683 12.494 3.06798 12.3503C3.00914 12.2067 2.97993 12.0529 2.98204 11.898C2.98134 11.7475 3.01131 11.5984 3.07018 11.4595C3.12905 11.3206 3.21562 11.1947 3.32476 11.0894C3.43174 10.9819 3.55954 10.8966 3.70058 10.8387C3.84162 10.7807 3.99303 10.7512 4.14586 10.7519H14.0705C14.3786 10.7537 14.6735 10.8751 14.8914 11.0896C15.1092 11.3042 15.2324 11.5946 15.2343 11.898C15.2343 12.0482 15.2042 12.1969 15.1456 12.3356C15.087 12.4743 15.0012 12.6001 14.893 12.706C14.7849 12.8119 14.6565 12.8956 14.5153 12.9525C14.3742 13.0093 14.223 13.0381 14.0705 13.0372H4.14586Z" fill="white"/>
</svg>
