<svg width="24" height="24" viewBox="0 0 24 24" fill="none" xmlns="http://www.w3.org/2000/svg">
<path d="M4.14577 6.8572C3.8388 6.85659 3.5442 6.73801 3.32467 6.52671C3.10813 6.31122 2.98522 6.02122 2.98195 5.71807C2.98124 5.56756 3.01121 5.41844 3.07008 5.27954C3.12895 5.14064 3.21552 5.01479 3.32467 4.90943C3.43165 4.80194 3.55944 4.71669 3.70048 4.65871C3.84152 4.60073 3.99294 4.57122 4.14577 4.57191H19.8538C20.0065 4.572 20.1577 4.60188 20.2986 4.65981C20.4396 4.71774 20.5675 4.80258 20.6749 4.90943C20.8928 5.12407 21.0159 5.41461 21.0176 5.71807C21.0108 6.02047 20.8884 6.30921 20.6749 6.52671C20.4554 6.73801 20.1608 6.85659 19.8538 6.8572H4.14577Z" fill="white"/>
<path d="M7.03747 13.1425C6.73446 13.1495 6.44038 13.0412 6.21636 12.8401C6.10572 12.73 6.01843 12.5994 5.95959 12.4557C5.90075 12.312 5.87153 12.1583 5.87364 12.0034C5.87294 11.8529 5.90291 11.7037 5.96178 11.5648C6.02065 11.4259 6.10722 11.3001 6.21636 11.1947C6.32334 11.0872 6.45114 11.002 6.59218 10.944C6.73322 10.886 6.88464 10.8565 7.03747 10.8572H16.9621C17.2702 10.8591 17.5651 10.9804 17.783 11.195C18.0008 11.4095 18.1241 11.7 18.1259 12.0034C18.1259 12.1536 18.0958 12.3023 18.0372 12.4409C17.9786 12.5796 17.8928 12.7055 17.7846 12.8114C17.6765 12.9172 17.5481 13.001 17.4069 13.0578C17.2658 13.1147 17.1146 13.1434 16.9621 13.1425H7.03747Z" fill="white"/>
<path d="M6.15554 19.4281C5.84857 19.4275 5.55396 19.3089 5.33443 19.0976C5.1179 18.8821 4.99499 18.5921 4.99171 18.289C4.99101 18.1385 5.02098 17.9894 5.07985 17.8505C5.13872 17.7116 5.22529 17.5857 5.33443 17.4804C5.44141 17.3729 5.56921 17.2876 5.71025 17.2296C5.85129 17.1717 6.0027 17.1421 6.15554 17.1428H17.8438C18.1518 17.1447 18.4468 17.266 18.6646 17.4806C18.8825 17.6951 19.0057 17.9856 19.0076 18.289C19.0076 18.4392 18.9774 18.5879 18.9189 18.7265C18.8603 18.8652 18.7744 18.9911 18.6663 19.097C18.5581 19.2028 18.4298 19.2866 18.2886 19.3434C18.1474 19.4003 17.9963 19.429 17.8438 19.4281H6.15554Z" fill="white"/>
</svg>
