<svg width="24" height="24" viewBox="0 0 24 24" fill="none" xmlns="http://www.w3.org/2000/svg">
<path d="M4.14577 6.8572C3.8388 6.85659 3.5442 6.73801 3.32467 6.52671C3.10813 6.31122 2.98522 6.02122 2.98195 5.71807C2.98124 5.56756 3.01121 5.41844 3.07008 5.27954C3.12895 5.14064 3.21552 5.01479 3.32467 4.90943C3.43165 4.80194 3.55944 4.71669 3.70048 4.65871C3.84152 4.60073 3.99294 4.57122 4.14577 4.57191H19.8538C20.0065 4.572 20.1577 4.60188 20.2986 4.65981C20.4396 4.71774 20.5675 4.80258 20.6749 4.90943C20.8928 5.12407 21.0159 5.41461 21.0176 5.71807C21.0108 6.02047 20.8884 6.30921 20.6749 6.52671C20.4554 6.73801 20.1608 6.85659 19.8538 6.8572H4.14577Z" fill="white"/>
<path d="M9.92907 13.1425C9.62606 13.1495 9.33198 13.0412 9.10796 12.8401C8.99732 12.73 8.91003 12.5994 8.85119 12.4557C8.79235 12.312 8.76313 12.1583 8.76524 12.0034C8.76454 11.8529 8.79451 11.7037 8.85338 11.5648C8.91225 11.4259 8.99882 11.3001 9.10796 11.1947C9.21495 11.0872 9.34274 11.002 9.48378 10.944C9.62482 10.886 9.77624 10.8565 9.92907 10.8572H19.8537C20.1618 10.8591 20.4567 10.9804 20.6746 11.195C20.8924 11.4095 21.0157 11.7 21.0175 12.0034C21.0175 12.1536 20.9874 12.3023 20.9288 12.4409C20.8702 12.5796 20.7844 12.7055 20.6762 12.8114C20.5681 12.9172 20.4397 13.001 20.2985 13.0578C20.1574 13.1147 20.0062 13.1434 19.8537 13.1425H9.92907Z" fill="white"/>
<path d="M8.16579 19.4281C7.85882 19.4275 7.56422 19.3089 7.34469 19.0976C7.12815 18.8821 7.00524 18.5921 7.00197 18.289C7.00126 18.1385 7.03123 17.9894 7.0901 17.8505C7.14897 17.7116 7.23554 17.5857 7.34469 17.4804C7.45167 17.3729 7.57946 17.2876 7.7205 17.2296C7.86154 17.1717 8.01296 17.1421 8.16579 17.1428H19.854C20.1621 17.1447 20.457 17.266 20.6749 17.4806C20.8927 17.6951 21.016 17.9856 21.0178 18.289C21.0178 18.4392 20.9877 18.5879 20.9291 18.7265C20.8705 18.8652 20.7847 18.9911 20.6765 19.097C20.5684 19.2028 20.44 19.2866 20.2988 19.3434C20.1577 19.4003 20.0065 19.429 19.854 19.4281H8.16579Z" fill="white"/>
</svg>
