<svg width="24" height="24" viewBox="0 0 24 24" fill="none" xmlns="http://www.w3.org/2000/svg">
<path d="M14.716 11.5241C15.7993 11.7233 16.8307 12.1611 17.7428 12.809C18.1441 13.138 18.4667 13.5615 18.6849 14.0456C18.9031 14.5297 19.0109 15.061 18.9995 15.5969C19.0067 16.1741 18.8857 16.7452 18.6462 17.2643C18.4067 17.7835 18.0553 18.2364 17.6202 18.5868C16.4938 19.5322 14.8616 20.009 12.7083 20.009H4.99951V19.5726C5.48331 19.6083 5.96884 19.5368 6.4248 19.3625C6.65262 19.2481 6.83842 19.0579 6.95353 18.8211C7.09043 18.2953 7.14225 17.7489 7.10679 17.2049V6.82109C7.13982 6.27716 7.08805 5.7312 6.95353 5.20493C6.83956 4.96633 6.6497 4.77756 6.41714 4.6716C5.96462 4.4932 5.48183 4.41614 4.99951 4.44534V4.00897H12.2715C13.521 3.93274 14.773 4.09984 15.965 4.5019C16.6608 4.80137 17.2578 5.31001 17.6815 5.96453C18.0866 6.5757 18.3034 7.30368 18.3022 8.04938C18.3093 8.81495 18.0346 9.55359 17.5359 10.11C16.7375 10.8464 15.7616 11.3358 14.716 11.5241ZM10.6394 12.1302V17.8514C10.6263 18.0252 10.6468 18.2 10.6994 18.3652C10.7521 18.5305 10.8359 18.6828 10.9459 18.813C11.0691 18.9293 11.2135 19.018 11.3703 19.0736C11.527 19.1291 11.6929 19.1505 11.8577 19.1362C12.4315 19.1429 12.9978 18.9985 13.5053 18.716C14.0018 18.4498 14.4066 18.0258 14.6623 17.5039C14.9354 16.956 15.0749 16.3451 15.0685 15.7261C15.0731 15.0184 14.9014 14.3217 14.5704 13.7059C14.268 13.1385 13.7888 12.6988 13.2141 12.4615C12.381 12.1921 11.5094 12.08 10.6394 12.1302ZM10.6394 11.209C11.4374 11.2541 12.2357 11.1248 12.9842 10.8292C13.46 10.6036 13.8624 10.2355 14.1413 9.77059C14.4236 9.2469 14.5641 8.65151 14.5474 8.04938C14.569 7.44001 14.4312 6.83613 14.1489 6.30392C13.8762 5.84845 13.4816 5.48849 13.0148 5.26958C12.2519 4.9927 11.4446 4.87736 10.6394 4.93018V11.209Z" fill="white"/>
</svg>
