<svg width="24" height="24" viewBox="0 0 24 24" fill="none" xmlns="http://www.w3.org/2000/svg">
<path d="M23 15H18.9084C18.137 15 17.3973 14.6839 16.8518 14.1213C16.3064 13.5587 16 12.7956 16 12C16 11.2044 16.3064 10.4413 16.8518 9.87868C17.3973 9.31607 18.137 9 18.9084 9H23" fill="#C2C2C2"/>
<path d="M9.38059 6.29193H5.19011C3.16506 6.29193 1.52344 7.91821 1.52344 9.92433V14.0757C1.52344 16.0818 3.16506 17.7081 5.19011 17.7081H9.38059C11.4056 17.7081 13.0473 16.0818 13.0473 14.0757V9.92433C13.0473 7.91821 11.4056 6.29193 9.38059 6.29193Z" fill="black" fill-opacity="0.3"/>
<path d="M9.30264 18.227H5.15132C4.05032 18.227 2.99442 17.7896 2.21589 17.0111C1.43737 16.2325 1 15.1766 1 14.0756V9.92433C1 8.82333 1.43737 7.76743 2.21589 6.9889C2.99442 6.21038 4.05032 5.77301 5.15132 5.77301H9.30264C10.4036 5.77301 11.4595 6.21038 12.2381 6.9889C13.0166 7.76743 13.454 8.82333 13.454 9.92433V14.0756C13.454 15.1766 13.0166 16.2325 12.2381 17.0111C11.4595 17.7896 10.4036 18.227 9.30264 18.227ZM5.15132 6.81084C4.32636 6.81342 3.53594 7.14228 2.9526 7.72561C2.36927 8.30895 2.04041 9.09937 2.03783 9.92433V14.0756C2.03783 14.9014 2.36586 15.6933 2.94975 16.2772C3.53364 16.8611 4.32557 17.1891 5.15132 17.1891H9.30264C10.1284 17.1891 10.9203 16.8611 11.5042 16.2772C12.0881 15.6933 12.4161 14.9014 12.4161 14.0756V9.92433C12.4161 9.09858 12.0881 8.30665 11.5042 7.72276C10.9203 7.13887 10.1284 6.81084 9.30264 6.81084H5.15132Z" fill="white"/>
<path d="M6.27739 14.5848C6.19951 14.5834 6.12288 14.5652 6.05288 14.5313C5.98288 14.4975 5.9212 14.4489 5.87217 14.3889L4.25133 12.3231C4.1674 12.2123 4.13073 12.0732 4.14921 11.9359C4.1677 11.7986 4.23985 11.6739 4.35016 11.5888C4.46044 11.5062 4.5992 11.4701 4.7362 11.4885C4.8732 11.5068 4.99732 11.578 5.08152 11.6867L6.30703 13.2532L9.50919 9.58164C9.60212 9.47969 9.73145 9.41757 9.86981 9.40843C10.0082 9.39929 10.1447 9.44386 10.2504 9.53269C10.3025 9.57758 10.3451 9.63223 10.3758 9.69349C10.4065 9.75475 10.4247 9.82142 10.4293 9.88966C10.4339 9.95791 10.4248 10.0264 10.4026 10.0911C10.3804 10.1559 10.3455 10.2157 10.2999 10.267L6.67271 14.4183C6.62371 14.4737 6.56271 14.5175 6.49426 14.5463C6.42581 14.5751 6.35168 14.5883 6.27739 14.5848Z" fill="white"/>
</svg>
