<svg width="24" height="24" viewBox="0 0 24 24" fill="none" xmlns="http://www.w3.org/2000/svg">
<path d="M12 24C9.62663 24 7.30655 23.2962 5.33316 21.9776C3.35977 20.6591 1.8217 18.7849 0.913451 16.5922C0.00519949 14.3995 -0.232441 11.9867 0.230582 9.65892C0.693604 7.33115 1.83649 5.19295 3.51472 3.51472C5.19295 1.83649 7.33115 0.693604 9.65892 0.230582C11.9867 -0.232441 14.3995 0.00519949 16.5922 0.913451C18.7849 1.8217 20.6591 3.35977 21.9776 5.33316C23.2962 7.30655 24 9.62663 24 12C24 15.1826 22.7357 18.2348 20.4853 20.4853C18.2348 22.7357 15.1826 24 12 24ZM12 2.18182C10.0581 2.18182 8.1599 2.75765 6.54531 3.83648C4.93072 4.91532 3.6723 6.44871 2.92919 8.24275C2.18607 10.0368 1.99164 12.0109 2.37048 13.9154C2.74931 15.82 3.6844 17.5694 5.0575 18.9425C6.4306 20.3156 8.18003 21.2507 10.0846 21.6295C11.9891 22.0084 13.9632 21.8139 15.7573 21.0708C17.5513 20.3277 19.0847 19.0693 20.1635 17.4547C21.2424 15.8401 21.8182 13.9419 21.8182 12C21.8182 10.7107 21.5642 9.43394 21.0708 8.24275C20.5774 7.05155 19.8542 5.9692 18.9425 5.0575C18.0308 4.1458 16.9485 3.4226 15.7573 2.92919C14.5661 2.43578 13.2893 2.18182 12 2.18182Z" fill="white"/>
<path d="M7.37464 17.7164C7.09228 17.7328 6.81458 17.6389 6.6001 17.4545C6.46175 17.3135 6.36432 17.1375 6.31821 16.9453C6.2721 16.7532 6.27903 16.5521 6.33828 16.3636L8.65101 9.33817C8.70465 9.17829 8.79463 9.03302 8.91387 8.91377C9.03312 8.79452 9.17839 8.70454 9.33828 8.6509L16.2765 6.33817C16.4696 6.27206 16.6773 6.26145 16.8762 6.30753C17.075 6.35362 17.2569 6.45456 17.4012 6.59888C17.5455 6.7432 17.6465 6.92511 17.6926 7.12394C17.7386 7.32276 17.728 7.53053 17.6619 7.72363L15.3492 14.6618C15.2955 14.8217 15.2056 14.967 15.0863 15.0862C14.9671 15.2055 14.8218 15.2954 14.6619 15.3491L7.72373 17.6618C7.6104 17.6958 7.49295 17.7142 7.37464 17.7164ZM10.5492 10.5491L9.09828 14.9127L13.4619 13.4618L14.9128 9.09817L10.5492 10.5491Z" fill="white"/>
</svg>
