<svg width="24" height="24" viewBox="0 0 24 24" fill="none" xmlns="http://www.w3.org/2000/svg">
<path d="M11.0628 6.00836H0V17.9916H11.0628V6.00836Z" fill="black" fill-opacity="0.1"/>
<path d="M11.063 6.00836H20.1676C21.1841 6.00836 22.1589 6.41216 22.8777 7.13091C23.5964 7.84967 24.0002 8.82452 24.0002 9.841V14.1506C24.0002 15.1679 23.5967 16.1436 22.8782 16.8637C22.1597 17.5838 21.1848 17.9894 20.1676 17.9916H11.063V6.00836Z" fill="#D4D4D4"/>
<path d="M19.2301 11.5397H14.4017C14.1475 11.5397 13.9414 11.7458 13.9414 12C13.9414 12.2542 14.1475 12.4602 14.4017 12.4602H19.2301C19.4843 12.4602 19.6904 12.2542 19.6904 12C19.6904 11.7458 19.4843 11.5397 19.2301 11.5397Z" fill="white"/>
<path d="M16.8119 9.23013C16.9407 9.23013 17.0641 9.28127 17.1551 9.37229C17.2462 9.46331 17.2973 9.58676 17.2973 9.71549V14.2845C17.2973 14.3479 17.2847 14.4106 17.2602 14.469C17.2357 14.5274 17.1998 14.5804 17.1547 14.6248C17.1095 14.6692 17.0559 14.7042 16.9971 14.7276C16.9382 14.7511 16.8753 14.7626 16.8119 14.7615C16.6854 14.7615 16.5641 14.7113 16.4747 14.6218C16.3852 14.5324 16.335 14.411 16.335 14.2845V9.71549C16.3349 9.5882 16.3849 9.466 16.4741 9.37522C16.5634 9.28443 16.6847 9.23233 16.8119 9.23013Z" fill="white"/>
<path d="M7.11311 12.8703C7.13692 13.5041 7.03158 14.1362 6.80349 14.728C6.63154 15.1626 6.32321 15.5297 5.92483 15.7741C5.52431 16.0001 5.07089 16.1156 4.61102 16.1088C4.14842 16.1163 3.69213 16.0008 3.28885 15.7741C2.8834 15.5334 2.56868 15.1657 2.39345 14.728C2.16205 14.1369 2.05384 13.5047 2.07546 12.8703V11.5816C2.05572 10.948 2.16093 10.3168 2.38508 9.72384C2.56279 9.29454 2.87375 8.9337 3.27211 8.69456C3.67605 8.47034 4.1324 8.3577 4.59428 8.3682C5.05603 8.3589 5.51208 8.47146 5.91646 8.69456C6.29689 8.9409 6.58977 9.30114 6.75328 9.72384C7.00299 10.3108 7.12562 10.9439 7.11311 11.5816V12.8703ZM5.69052 11.3807C5.70119 11.0085 5.65893 10.6365 5.565 10.2761C5.50705 10.0449 5.37474 9.83909 5.18843 9.69037C5.01411 9.57011 4.80598 9.50855 4.59428 9.51464C4.38274 9.5097 4.17496 9.57115 4.00014 9.69037C3.81383 9.83909 3.68152 10.0449 3.62357 10.2761C3.52964 10.6365 3.48738 11.0085 3.49805 11.3807V13.0544C3.48535 13.43 3.53051 13.8054 3.63194 14.1674C3.68769 14.4042 3.82006 14.616 4.00851 14.7699C4.1827 14.8977 4.39513 14.9626 4.61102 14.954C4.8216 14.9615 5.02836 14.8965 5.1968 14.7699C5.37986 14.6128 5.50871 14.4019 5.565 14.1674C5.65816 13.8068 5.70041 13.435 5.69052 13.0628V11.3807Z" fill="white"/>
</svg>
