<svg width="24" height="24" viewBox="0 0 24 24" fill="none" xmlns="http://www.w3.org/2000/svg">
<path opacity="0.99" d="M12.0273 15.0782C11.434 15.0782 10.854 14.9022 10.3606 14.5726C9.86729 14.243 9.48277 13.7744 9.25571 13.2262C9.02864 12.6781 8.96923 12.0749 9.08499 11.4929C9.20074 10.911 9.48647 10.3764 9.90602 9.95687C10.3256 9.53731 10.8601 9.25159 11.4421 9.13583C12.024 9.02008 12.6272 9.07949 13.1754 9.30655C13.7236 9.53361 14.1921 9.91813 14.5218 10.4115C14.8514 10.9048 15.0273 11.4848 15.0273 12.0782C15.0273 12.8738 14.7113 13.6369 14.1487 14.1995C13.5861 14.7621 12.823 15.0782 12.0273 15.0782ZM12.0273 11.0782C11.8296 11.0782 11.6362 11.1368 11.4718 11.2467C11.3073 11.3566 11.1792 11.5128 11.1035 11.6955C11.0278 11.8782 11.008 12.0793 11.0466 12.2733C11.0851 12.4673 11.1804 12.6454 11.3202 12.7853C11.4601 12.9251 11.6383 13.0204 11.8323 13.059C12.0262 13.0976 12.2273 13.0778 12.41 13.0021C12.5928 12.9264 12.7489 12.7982 12.8588 12.6338C12.9687 12.4693 13.0273 12.276 13.0273 12.0782C13.0273 11.813 12.922 11.5586 12.7345 11.3711C12.5469 11.1835 12.2926 11.0782 12.0273 11.0782Z" fill="white"/>
<path d="M19.0873 20.1482C18.825 20.1471 18.5736 20.0429 18.3873 19.8582C18.2936 19.7652 18.2192 19.6546 18.1684 19.5328C18.1177 19.4109 18.0915 19.2802 18.0915 19.1482C18.0915 19.0162 18.1177 18.8855 18.1684 18.7636C18.2192 18.6417 18.2936 18.5311 18.3873 18.4382C20.0727 16.7507 21.0194 14.4632 21.0194 12.0782C21.0194 9.69317 20.0727 7.40569 18.3873 5.71818C18.199 5.5312 18.0927 5.27708 18.0918 5.01172C18.0908 4.74635 18.1953 4.49148 18.3823 4.30318C18.5693 4.11488 18.8234 4.00856 19.0888 4.00762C19.3542 4.00669 19.609 4.1112 19.7973 4.29818C20.8193 5.31969 21.63 6.53255 22.1832 7.86747C22.7363 9.20239 23.021 10.6332 23.021 12.0782C23.021 13.5232 22.7363 14.954 22.1832 16.2889C21.63 17.6238 20.8193 18.8367 19.7973 19.8582C19.7039 19.9509 19.5931 20.0242 19.4712 20.074C19.3494 20.1237 19.2189 20.1489 19.0873 20.1482ZM4.94732 20.1482C4.81572 20.1489 4.68525 20.1237 4.56342 20.074C4.44158 20.0242 4.33076 19.9509 4.23732 19.8582C3.21533 18.8367 2.40462 17.6238 1.85149 16.2889C1.29837 14.954 1.01367 13.5232 1.01367 12.0782C1.01367 10.6332 1.29837 9.20239 1.85149 7.86747C2.40462 6.53255 3.21533 5.31969 4.23732 4.29818C4.42563 4.10988 4.68102 4.00409 4.94732 4.00409C5.21362 4.00409 5.46902 4.10988 5.65732 4.29818C5.84563 4.48648 5.95142 4.74188 5.95142 5.00818C5.95142 5.27448 5.84563 5.52988 5.65732 5.71818C3.97192 7.40569 3.02524 9.69317 3.02524 12.0782C3.02524 14.4632 3.97192 16.7507 5.65732 18.4382C5.75105 18.5311 5.82545 18.6417 5.87621 18.7636C5.92698 18.8855 5.95312 19.0162 5.95312 19.1482C5.95312 19.2802 5.92698 19.4109 5.87621 19.5328C5.82545 19.6546 5.75105 19.7652 5.65732 19.8582C5.56388 19.9509 5.45307 20.0242 5.33123 20.074C5.20939 20.1237 5.07893 20.1489 4.94732 20.1482ZM16.2573 17.3282C15.995 17.3271 15.7436 17.2229 15.5573 17.0382C15.3788 16.8627 15.2726 16.6267 15.2597 16.3768C15.2467 16.1269 15.3279 15.8811 15.4873 15.6882L15.5573 15.6182C16.4947 14.6805 17.0213 13.409 17.0213 12.0832C17.0213 10.7574 16.4947 9.48582 15.5573 8.54818C15.369 8.3612 15.2627 8.10708 15.2618 7.84172C15.2608 7.57635 15.3653 7.32148 15.5523 7.13318C15.7393 6.94488 15.9934 6.83856 16.2588 6.83763C16.5242 6.83669 16.779 6.9412 16.9673 7.12818C18.2821 8.43218 19.0267 10.204 19.0379 12.0558C19.0491 13.9075 18.3262 15.6883 17.0273 17.0082C16.9296 17.1138 16.8102 17.197 16.6773 17.2523C16.5444 17.3075 16.4011 17.3334 16.2573 17.3282ZM7.02732 17.0982C6.37724 16.4482 5.86156 15.6765 5.50973 14.8271C5.1579 13.9778 4.97682 13.0675 4.97682 12.1482C4.97682 11.2289 5.1579 10.3186 5.50973 9.46923C5.86156 8.61991 6.37724 7.8482 7.02732 7.19818C7.12029 7.10445 7.23089 7.03006 7.35275 6.97929C7.47461 6.92852 7.60531 6.90238 7.73732 6.90238C7.86934 6.90238 8.00004 6.92852 8.1219 6.97929C8.24376 7.03006 8.35436 7.10445 8.44732 7.19818C8.63357 7.38554 8.73812 7.639 8.73812 7.90318C8.73812 8.16737 8.63357 8.42082 8.44732 8.60818C7.50997 9.54582 6.98339 10.8174 6.98339 12.1432C6.98339 13.469 7.50997 14.7405 8.44732 15.6782L8.51732 15.7582C8.69502 15.9558 8.78694 16.2158 8.77288 16.4812C8.75881 16.7466 8.63991 16.9955 8.44232 17.1732C8.24474 17.3509 7.98465 17.4428 7.71929 17.4287C7.45393 17.4147 7.20502 17.2958 7.02732 17.0982Z" fill="white"/>
</svg>
