<svg width="20" height="20" viewBox="0 0 20 20" fill="none" xmlns="http://www.w3.org/2000/svg">
<g clip-path="url(#clip0_1415_5770)">
<path d="M19 19.1101H10C9.45 19.1101 9 18.6601 9 18.1101C9 17.5601 9.45 17.1101 10 17.1101H19C19.55 17.1101 20 17.5601 20 18.1101C20 18.6601 19.55 19.1101 19 19.1101Z" fill="#D4D4D4"/>
<path d="M14.5 1.60999C14.9 1.20999 15.44 0.98999 16 0.98999C16.28 0.98999 16.55 1.03999 16.81 1.14999C17.07 1.25999 17.3 1.40999 17.5 1.60999C17.7 1.80999 17.85 2.03999 17.96 2.29999C18.07 2.55999 18.12 2.82999 18.12 3.10999C18.12 3.38999 18.07 3.65999 17.96 3.91999C17.85 4.17999 17.7 4.40999 17.5 4.60999L5 17.11L1 18.11L2 14.11L14.5 1.60999Z" fill="white"/>
<path d="M1.00008 19.11C0.740085 19.11 0.480085 19.01 0.290085 18.82C0.0400846 18.57 -0.0599154 18.21 0.0300846 17.87L1.03008 13.87C1.07008 13.69 1.16008 13.53 1.29008 13.41L13.7901 0.899983C14.6601 0.0299831 16.0501 -0.250017 17.1901 0.219983C17.5701 0.379983 17.9101 0.599983 18.2001 0.899983C18.4901 1.18998 18.7201 1.52998 18.8801 1.90998C19.0401 2.28998 19.1201 2.68998 19.1201 3.09998C19.1201 3.50998 19.0401 3.90998 18.8801 4.28998C18.7201 4.66998 18.4901 5.00998 18.2001 5.29998L5.70008 17.8C5.57008 17.93 5.41008 18.02 5.24008 18.06L1.24008 19.06C1.16008 19.08 1.08008 19.09 1.00008 19.09V19.11ZM2.90008 14.62L2.37008 16.73L4.48008 16.2L16.7901 3.89998C16.9001 3.79998 16.9801 3.66998 17.0301 3.53998C17.0901 3.39998 17.1101 3.25998 17.1101 3.10998C17.1101 2.95998 17.0801 2.81998 17.0301 2.67998C16.9701 2.53998 16.8901 2.41998 16.7901 2.31998C16.6801 2.20998 16.5601 2.12998 16.4201 2.07998C16.0201 1.90998 15.5101 2.00998 15.2001 2.31998L2.90008 14.62Z" fill="#D4D4D4"/>
</g>
<defs>
<clipPath id="clip0_1415_5770">
<rect width="20" height="19.11" fill="white"/>
</clipPath>
</defs>
</svg>
