<svg width="20" height="24" viewBox="0 0 20 24" fill="none" xmlns="http://www.w3.org/2000/svg">
<g clip-path="url(#clip0_410_3988)">
<path fill-rule="evenodd" clip-rule="evenodd" d="M0.87868 0.87868C1.44129 0.316071 2.20435 0 3 0H10C10.2652 0 10.5196 0.105357 10.7071 0.292893L17.7071 7.29289C17.8946 7.48043 18 7.73478 18 8V19C18 19.7957 17.6839 20.5587 17.1213 21.1213C16.5587 21.6839 15.7957 22 15 22H3C2.20435 22 1.44129 21.6839 0.87868 21.1213C0.316071 20.5587 0 19.7957 0 19V3C0 2.20435 0.316071 1.44129 0.87868 0.87868ZM3 2C2.73478 2 2.48043 2.10536 2.29289 2.29289C2.10536 2.48043 2 2.73478 2 3V19C2 19.2652 2.10536 19.5196 2.29289 19.7071C2.48043 19.8946 2.73478 20 3 20H15C15.2652 20 15.5196 19.8946 15.7071 19.7071C15.8946 19.5196 16 19.2652 16 19V8.41421L9.58579 2H3Z" fill="white"/>
<path fill-rule="evenodd" clip-rule="evenodd" d="M10 0C10.5523 0 11 0.447715 11 1V7H17C17.5523 7 18 7.44772 18 8C18 8.55228 17.5523 9 17 9H10C9.44772 9 9 8.55228 9 8V1C9 0.447715 9.44772 0 10 0Z" fill="white"/>
<path d="M15.9298 12.5L11.2798 12.63C11.0146 12.63 10.7603 12.5246 10.5727 12.3371C10.3852 12.1496 10.2798 11.8952 10.2798 11.63C10.2798 11.3648 10.3852 11.1104 10.5727 10.9229C10.7603 10.7354 11.0146 10.63 11.2798 10.63L18.3398 10.44C18.6051 10.44 18.8594 10.5454 19.0469 10.7329C19.2345 10.9204 19.3398 11.1748 19.3398 11.44L19.5298 18.51C19.5298 18.7752 19.4245 19.0296 19.2369 19.2171C19.0494 19.4046 18.7951 19.51 18.5298 19.51C18.2646 19.51 18.0103 19.4046 17.8227 19.2171C17.6352 19.0296 17.5298 18.7752 17.5298 18.51L17.4298 13.77L8.72984 23C8.6366 23.1005 8.52368 23.1808 8.3981 23.2359C8.27251 23.2909 8.13695 23.3196 7.99984 23.32C7.74237 23.319 7.49521 23.2187 7.30984 23.04C7.12358 22.8526 7.01904 22.5992 7.01904 22.335C7.01904 22.0708 7.12358 21.8174 7.30984 21.63L15.9298 12.5Z" fill="white"/>
<path fill-rule="evenodd" clip-rule="evenodd" d="M18.3398 10.19C18.6714 10.19 18.9893 10.3217 19.2237 10.5561C19.4573 10.7897 19.5889 11.1062 19.5898 11.4365L19.7799 18.51C19.7799 18.8415 19.6481 19.1595 19.4137 19.3939C19.1793 19.6283 18.8614 19.76 18.5298 19.76C18.1983 19.76 17.8804 19.6283 17.646 19.3939C17.4122 19.1601 17.2806 18.8433 17.2798 18.5128L17.1928 14.386L8.91314 23.17C8.91291 23.1703 8.91267 23.1705 8.91244 23.1708C8.79602 23.2961 8.65513 23.3962 8.49846 23.4648C8.34149 23.5337 8.17204 23.5694 8.00064 23.57L7.99884 23.57C7.677 23.5687 7.36806 23.4434 7.13634 23.22L7.13249 23.2163C6.89968 22.9821 6.76904 22.6652 6.76904 22.335C6.76904 22.0059 6.89883 21.6901 7.13014 21.4562L15.3342 12.7668L11.2798 12.8801C10.9483 12.8801 10.6304 12.7483 10.396 12.5139C10.1615 12.2795 10.0298 11.9615 10.0298 11.63C10.0298 11.2985 10.1615 10.9805 10.396 10.7461C10.6295 10.5125 10.946 10.3809 11.2763 10.38L18.3398 10.19ZM18.343 10.69L11.2798 10.8801C11.0809 10.8801 10.8902 10.959 10.7495 11.0997C10.6089 11.2403 10.5298 11.4311 10.5298 11.63C10.5298 11.8289 10.6089 12.0197 10.7495 12.1603C10.8894 12.3002 11.0788 12.3791 11.2766 12.38L15.9228 12.2501C16.0239 12.2473 16.1167 12.3056 16.158 12.3978C16.1993 12.4901 16.181 12.5981 16.1116 12.6716L7.4872 21.8063C7.34751 21.9468 7.26904 22.1369 7.26904 22.335C7.26904 22.5323 7.34675 22.7215 7.48526 22.8619C7.62385 22.9945 7.80803 23.069 7.9999 23.07C8.10244 23.0696 8.20381 23.0481 8.29773 23.0069C8.39191 22.9656 8.4766 22.9054 8.54653 22.83L8.54791 22.8285L17.2479 13.5985C17.3175 13.5247 17.4249 13.5002 17.5196 13.5367C17.6144 13.5731 17.6776 13.6633 17.6798 13.7647L17.7799 18.51C17.7799 18.7089 17.8589 18.8997 17.9995 19.0403C18.1402 19.181 18.3309 19.26 18.5298 19.26C18.7287 19.26 18.9195 19.181 19.0602 19.0403C19.2001 18.9004 19.279 18.7109 19.2798 18.5131L19.0897 11.44C19.0897 11.2411 19.0108 11.0503 18.8702 10.9097C18.7303 10.7698 18.5407 10.6908 18.343 10.69Z" fill="black"/>
</g>
<defs>
<clipPath id="clip0_410_3988">
<rect width="19.76" height="23.58" fill="white"/>
</clipPath>
</defs>
</svg>
