<svg width="24" height="24" viewBox="0 0 24 24" fill="none" xmlns="http://www.w3.org/2000/svg">
<path d="M15.801 0.760163C15.6528 0.605435 15.4747 0.482292 15.2775 0.398163C15.0804 0.314033 14.8682 0.27066 14.6537 0.27066C14.4393 0.27066 14.2271 0.314033 14.0299 0.398163C13.8328 0.482292 13.6547 0.605435 13.5065 0.760163L10.8748 3.34475C10.0727 4.15069 9.54402 5.1876 9.3632 6.30943L8.77597 9.36098L1.47906 16.6478C1.09668 17.028 0.793221 17.4798 0.586081 17.9774C0.378941 18.4749 0.272198 19.0084 0.271973 19.5473C0.277911 20.6441 0.710788 21.6956 1.47906 22.4794C1.86328 22.8656 2.32098 23.1713 2.82521 23.3783C3.32945 23.5853 3.87006 23.6895 4.41523 23.6848C5.51708 23.6806 6.57402 23.2482 7.36226 22.4794L14.6592 15.2035L17.715 14.617C18.8248 14.4084 19.8493 13.8799 20.662 13.0967L23.2719 10.5121C23.4242 10.3625 23.5451 10.1842 23.6276 9.9875C23.7101 9.79081 23.7526 9.57967 23.7526 9.36641C23.7526 9.15314 23.7101 8.94201 23.6276 8.74531C23.5451 8.54862 23.4242 8.37029 23.2719 8.22072L15.801 0.760163ZM19.5745 12.0324C18.9852 12.6301 18.2258 13.0321 17.3996 13.1836L14.1372 13.8026C13.9811 13.8262 13.8365 13.8984 13.7239 14.0089L6.2748 21.4369C6.03123 21.681 5.74125 21.874 5.4219 22.0045C5.10255 22.1351 4.76028 22.2005 4.41523 22.197C3.89818 22.1953 3.39322 22.0408 2.96387 21.7531C2.53453 21.4654 2.2 21.0573 2.00237 20.5802C1.80475 20.1031 1.75286 19.5783 1.85325 19.0718C1.95364 18.5653 2.20181 18.0997 2.56653 17.7337L10.0048 10.3058C10.1218 10.198 10.1953 10.0512 10.2114 9.8931L10.8313 6.63521C10.9876 5.8118 11.3894 5.05476 11.984 4.46329L12.071 4.34384L12.7779 5.04971L19.6833 11.9456L19.5963 12.0324H19.5745ZM22.1627 9.42614L20.749 10.8596L13.1367 3.25787L14.5939 1.84612C14.6161 1.83021 14.6427 1.82166 14.67 1.82166C14.6974 1.82166 14.724 1.83021 14.7462 1.84612L22.1844 9.2741C22.1919 9.29518 22.1919 9.31818 22.1844 9.33926C22.2171 9.39356 22.2171 9.42614 22.1844 9.42614H22.1627Z" fill="white"/>
<path d="M4.4155 23.9998C3.8342 24.006 3.25755 23.8958 2.71962 23.6757C2.18169 23.4556 1.6934 23.1301 1.28359 22.7183C0.458212 21.8688 -0.0022438 20.731 0.000379354 19.5473C-0.00732201 18.965 0.102308 18.3871 0.322752 17.8479C0.543196 17.3088 0.869952 16.8194 1.28359 16.4089L8.52613 9.23067L9.09161 6.25514C9.30568 5.07571 9.87915 3.99104 10.7337 3.14929L13.3219 0.5647C13.4905 0.388231 13.6929 0.247332 13.9171 0.150337C14.1412 0.0533424 14.3825 0.0022221 14.6268 0C14.8779 9.29451e-05 15.1264 0.0500698 15.3579 0.147019C15.5894 0.243969 15.7993 0.385953 15.9753 0.5647L23.4462 8.02526C23.8008 8.37959 24 8.86004 24 9.36099C24 9.86194 23.8008 10.3424 23.4462 10.6967L20.8798 13.2922C20.0242 14.1263 18.9432 14.6925 17.7696 14.9211L14.7899 15.4858L7.61266 22.7183C6.75658 23.5478 5.6083 24.0081 4.4155 23.9998ZM14.6486 0.542981C14.4756 0.545993 14.3049 0.583031 14.1463 0.651978C13.9877 0.720924 13.8443 0.820425 13.7242 0.944787L11.1143 3.52938C10.3372 4.29402 9.81671 5.28049 9.62447 6.35288L9.02636 9.50216L8.96111 9.55646L1.67508 16.8433C1.31676 17.1968 1.03229 17.6179 0.838146 18.0821C0.644006 18.5462 0.544064 19.0443 0.544113 19.5473C0.539642 20.5686 0.929059 21.5525 1.63158 22.2948C1.99309 22.6487 2.42166 22.927 2.89222 23.1135C3.36277 23.3 3.86585 23.3908 4.372 23.3808C5.39851 23.388 6.38813 22.9989 7.13417 22.2948L14.4855 14.9537L17.6174 14.3564C18.6886 14.1478 19.6753 13.6307 20.4557 12.8686L23.0873 10.3166C23.3371 10.0611 23.4769 9.7181 23.4769 9.36099C23.4769 9.00388 23.3371 8.66092 23.0873 8.40534L15.6164 0.944787C15.3592 0.689053 15.0115 0.544711 14.6486 0.542981ZM4.4155 22.4685C4.03253 22.4716 3.65286 22.3977 3.29901 22.2514C2.94516 22.1051 2.62433 21.8894 2.35556 21.6169C2.08679 21.3445 1.87555 21.0209 1.73437 20.6654C1.5932 20.3099 1.52496 19.9297 1.53371 19.5473C1.52891 19.1683 1.60058 18.7922 1.74444 18.4415C1.8883 18.0907 2.10141 17.7725 2.37106 17.5057L9.78759 10.1103C9.86059 10.0416 9.90683 9.94923 9.91809 9.84967L10.5379 6.59179C10.7032 5.69689 11.1398 4.87428 11.7885 4.23525L12.0713 3.9529L20.075 11.9456L19.7923 12.2279C19.1567 12.8598 18.3461 13.2872 17.4651 13.4551L14.1375 14.1175C14.0354 14.1313 13.9402 14.1769 13.8656 14.2478L6.52519 21.6324C6.24891 21.9076 5.91934 22.1237 5.55661 22.2675C5.19388 22.4113 4.8056 22.4797 4.4155 22.4685ZM12.0278 4.72393C11.527 5.25855 11.191 5.92585 11.0599 6.64608L10.4401 9.90397C10.4065 10.1137 10.3075 10.3075 10.1573 10.4578L2.76255 17.9292C2.43724 18.2572 2.21607 18.6737 2.12674 19.1267C2.03741 19.5796 2.08389 20.0488 2.26037 20.4754C2.43684 20.9021 2.73546 21.2673 3.11882 21.5252C3.50219 21.7832 3.95324 21.9224 4.4155 21.9256C4.72495 21.9313 5.03228 21.8735 5.31847 21.7558C5.60466 21.6381 5.86362 21.4631 6.07933 21.2414L13.5285 13.8134C13.6743 13.663 13.8651 13.5639 14.0722 13.5311L17.3346 12.9121C18.0715 12.7898 18.756 12.4536 19.3029 11.9456L12.0278 4.72393ZM20.7275 11.2397L12.7673 3.25788L14.4093 1.62894C14.4839 1.56616 14.5782 1.53172 14.6758 1.53172C14.7733 1.53172 14.8676 1.56616 14.9422 1.62894L22.4566 9.1438V9.31755C22.4625 9.37893 22.4515 9.44077 22.4246 9.49631C22.3978 9.55184 22.3562 9.59895 22.3043 9.63248L20.7275 11.2397ZM13.5394 3.25788L20.7493 10.4578L21.8367 9.37185L14.6703 2.17192L13.5394 3.25788Z" fill="white"/>
<path d="M10.1031 12.7383L8.70027 14.1175C8.62315 14.1945 8.56198 14.2859 8.52025 14.3865C8.47851 14.4871 8.45703 14.595 8.45703 14.7039C8.45703 14.8128 8.47851 14.9206 8.52025 15.0213C8.56198 15.1219 8.62315 15.2133 8.70027 15.2903C8.85601 15.4458 9.06725 15.5332 9.2875 15.5332C9.39656 15.5332 9.50455 15.5118 9.60531 15.4701C9.70607 15.4284 9.79762 15.3673 9.87474 15.2903L11.2884 13.8786C11.366 13.8018 11.4276 13.7105 11.4697 13.6098C11.5117 13.5092 11.5334 13.4012 11.5334 13.2921C11.5334 13.1831 11.5117 13.0751 11.4697 12.9745C11.4276 12.8738 11.366 12.7825 11.2884 12.7057C11.2136 12.621 11.1211 12.5537 11.0173 12.5087C10.9136 12.4636 10.8012 12.4419 10.6881 12.445C10.5751 12.4481 10.464 12.476 10.363 12.5267C10.2619 12.5774 10.1731 12.6496 10.1031 12.7383Z" fill="white"/>
<path d="M9.2767 15.8333C9.13176 15.8356 8.98783 15.8089 8.85336 15.7548C8.7189 15.7007 8.59662 15.6203 8.49372 15.5184C8.39162 15.4156 8.31113 15.2935 8.25697 15.1592C8.20281 15.025 8.17608 14.8812 8.17836 14.7365C8.17608 14.5918 8.20281 14.448 8.25697 14.3137C8.31113 14.1795 8.39162 14.0574 8.49372 13.9546L9.90743 12.5537C10.0076 12.4459 10.1286 12.3594 10.2632 12.2997C10.3978 12.24 10.5431 12.2082 10.6904 12.2062C10.8395 12.2067 10.9869 12.2378 11.1235 12.2976C11.2601 12.3573 11.3829 12.4445 11.4843 12.5537C11.5878 12.6549 11.6701 12.7756 11.7263 12.909C11.7825 13.0423 11.8115 13.1855 11.8115 13.3302C11.8115 13.4748 11.7825 13.618 11.7263 13.7514C11.6701 13.8847 11.5878 14.0055 11.4843 14.1066L10.0706 15.5184C9.96637 15.6217 9.84232 15.7028 9.70589 15.757C9.56945 15.8111 9.42346 15.8371 9.2767 15.8333ZM10.6904 12.7492C10.6166 12.7488 10.5435 12.7642 10.476 12.7941C10.4085 12.8241 10.3482 12.868 10.2989 12.9229L8.88521 14.3347C8.83236 14.3873 8.79067 14.45 8.76264 14.519C8.73461 14.588 8.72082 14.662 8.72209 14.7365C8.72037 14.8094 8.734 14.8819 8.7621 14.9493C8.7902 15.0166 8.83214 15.0773 8.88521 15.1274C8.99101 15.2316 9.13359 15.2899 9.28214 15.2899C9.43068 15.2899 9.57326 15.2316 9.67906 15.1274L11.0819 13.7157C11.1359 13.6659 11.1791 13.6054 11.2085 13.5381C11.238 13.4708 11.2533 13.3982 11.2533 13.3247C11.2533 13.2513 11.238 13.1787 11.2085 13.1114C11.1791 13.0441 11.1359 12.9836 11.0819 12.9338C11.0347 12.8757 10.9749 12.829 10.9072 12.797C10.8394 12.7651 10.7653 12.7487 10.6904 12.7492Z" fill="white"/>
</svg>
