<svg width="24" height="24" viewBox="0 0 24 24" fill="none" xmlns="http://www.w3.org/2000/svg">
<path d="M3.39276 11.3737H2V4.5H3.39276V11.3737ZM6.67967 8.36598H3.01074V7.31443H6.67967V8.36598ZM7.70633 11.3737H6.32153V4.5H7.70633V11.3737Z" fill="white"/>
<path d="M12.2107 11.3737H10.8737V6.04639L9.1626 6.56443V5.50515L12.0595 4.5H12.2107V11.3737Z" fill="white"/>
<path d="M21.9682 12.8892H5.40629C4.50288 12.8892 3.63648 13.2378 2.99768 13.8584C2.35888 14.479 2 15.3208 2 16.1984C2 16.6327 2.08816 17.0626 2.25944 17.4637C2.43072 17.8647 2.68175 18.229 2.99816 18.5357C3.31457 18.8424 3.69014 19.0854 4.10336 19.2509C4.51658 19.4164 4.95934 19.501 5.40629 19.5H22" fill="#C2C2C2"/>
</svg>
