<svg width="24" height="24" viewBox="0 0 24 24" fill="none" xmlns="http://www.w3.org/2000/svg">
<path d="M21.9682 12.5H5.40629C4.50774 12.4978 3.64492 12.8631 3.00657 13.5159C2.36822 14.1687 2.00631 15.056 2 15.9836C2 16.9162 2.35888 17.8106 2.99768 18.4701C3.63648 19.1295 4.50288 19.5 5.40629 19.5H22" fill="#C2C2C2"/>
<path d="M3.3674 11.526H2V4.61218H3.3674V11.526ZM6.60923 8.52234H2.99098V7.42381H6.60923V8.52234ZM7.60789 11.526H6.24049V4.61218H7.59253L7.60789 11.526Z" fill="white"/>
<path d="M13.446 11.526H8.73691V10.6503L10.9801 8.23812C11.1764 8.03035 11.3587 7.80964 11.5255 7.57747C11.6481 7.41873 11.7465 7.24269 11.8174 7.05509C11.8706 6.91243 11.8992 6.76176 11.9019 6.60953C11.9249 6.3323 11.8395 6.05696 11.6638 5.84133C11.5751 5.74569 11.4666 5.67067 11.3458 5.62155C11.225 5.57244 11.0949 5.55044 10.9647 5.55709C10.7682 5.55045 10.5741 5.60242 10.4072 5.70638C10.2404 5.81035 10.1082 5.96161 10.0275 6.14093C9.94473 6.33516 9.90289 6.54436 9.90458 6.75549H8.59863C8.60584 6.36083 8.71429 5.97463 8.9136 5.63391C9.09066 5.29551 9.35614 5.01145 9.6818 4.81193C10.0813 4.59337 10.5327 4.48717 10.9877 4.50465C11.5841 4.46752 12.1729 4.65374 12.6394 5.02703C12.8336 5.20892 12.9858 5.43102 13.0853 5.67781C13.1848 5.9246 13.2293 6.19014 13.2155 6.45589C13.215 6.75739 13.1523 7.05553 13.0312 7.33164C12.8884 7.63559 12.7105 7.92178 12.5011 8.18435C12.2611 8.49483 12.0046 8.79229 11.7329 9.07547L10.4039 10.4736H13.4767L13.446 11.526Z" fill="white"/>
</svg>
