<svg width="24" height="24" viewBox="0 0 24 24" fill="none" xmlns="http://www.w3.org/2000/svg">
<path d="M21.6844 12.8895H5.59398C4.7163 12.8895 3.87456 13.2381 3.25394 13.8587C2.63333 14.4794 2.28467 15.3211 2.28467 16.1988C2.28467 16.633 2.37032 17.063 2.53672 17.464C2.70313 17.8651 2.94701 18.2294 3.25441 18.5361C3.56181 18.8428 3.92669 19.0858 4.32815 19.2513C4.7296 19.4167 5.15976 19.5014 5.59398 19.5004H21.7153" fill="#C2C2C2"/>
<path d="M3.70727 11.374H2.36963V4.60071H3.70727V11.374ZM6.86968 8.4358H3.34387V7.36105H6.86968V8.4358ZM7.85164 11.374H6.52173V4.60071H7.85164V11.374Z" fill="white"/>
<path d="M10.3261 7.72446H11.2307C11.5653 7.71948 11.8987 7.76377 12.2204 7.85591C12.4735 7.93514 12.7095 8.06102 12.9163 8.22705C13.096 8.37349 13.2368 8.56207 13.3261 8.77602C13.4172 8.99652 13.4619 9.23338 13.4575 9.4719C13.4711 9.85631 13.3629 10.2352 13.1483 10.5544C12.9346 10.8568 12.6397 11.0927 12.2977 11.2348C11.916 11.3945 11.5053 11.4735 11.0915 11.4668C10.8064 11.4706 10.5223 11.4315 10.2487 11.3508C9.9725 11.2775 9.71094 11.1572 9.47553 10.9951C9.2636 10.8336 9.08945 10.6278 8.96522 10.392C8.84699 10.1193 8.79404 9.82279 8.81058 9.52603H10.0941C10.0925 9.69251 10.1381 9.85603 10.2255 9.99768C10.3175 10.1347 10.4424 10.2464 10.5889 10.3224C10.7552 10.4024 10.938 10.4422 11.1225 10.4384C11.4044 10.4535 11.6813 10.3593 11.8957 10.1755C11.9891 10.0829 12.0621 9.97179 12.1101 9.84928C12.158 9.72678 12.1798 9.5956 12.174 9.46417C12.1831 9.25424 12.135 9.04579 12.0348 8.86107C11.9434 8.70701 11.8013 8.58949 11.6328 8.5286C11.4365 8.44927 11.2257 8.41238 11.0142 8.42035H10.3183L10.3261 7.72446ZM11.0219 7.41518C11.2251 7.42414 11.4273 7.38159 11.6096 7.29147C11.7592 7.21847 11.8812 7.09916 11.9575 6.95126C12.0373 6.79596 12.0772 6.62324 12.0735 6.44868C12.0785 6.28317 12.044 6.11885 11.973 5.96929C11.9052 5.83154 11.7937 5.72008 11.656 5.65228C11.4921 5.56551 11.3076 5.5254 11.1225 5.5363C10.9581 5.53486 10.7951 5.56641 10.6431 5.62908C10.5041 5.69604 10.3844 5.79712 10.2951 5.9229C10.2118 6.05176 10.1688 6.20248 10.1714 6.35589H8.89563C8.88706 6.00926 8.98708 5.66862 9.18172 5.38166C9.3797 5.10455 9.64608 4.88345 9.95492 4.7399C10.3104 4.57394 10.6993 4.49193 11.0915 4.5002C11.4987 4.49465 11.9031 4.56817 12.2823 4.7167C12.5965 4.85898 12.8644 5.08671 13.0555 5.37392C13.2577 5.6891 13.3576 6.05907 13.3416 6.43321C13.3418 6.6456 13.2914 6.85498 13.1946 7.04404C13.0958 7.25016 12.9564 7.43424 12.7848 7.58529C12.5873 7.75582 12.359 7.88704 12.1122 7.97189C11.8246 8.07497 11.5207 8.12475 11.2152 8.1188H10.3261V7.41518H11.0219Z" fill="white"/>
</svg>
