<svg width="24" height="21" viewBox="0 0 24 21" fill="none" xmlns="http://www.w3.org/2000/svg">
<g clip-path="url(#clip0_1415_5765)">
<path d="M20.79 2.49989C20.28 1.98989 19.67 1.57989 19.01 1.30989C18.34 1.02989 17.63 0.889893 16.9 0.889893C16.17 0.889893 15.46 1.02989 14.79 1.30989C14.12 1.58989 13.52 1.98989 13.01 2.49989L11.95 3.55989L10.89 2.49989C9.86 1.46989 8.46 0.889893 7 0.889893C5.54 0.889893 4.14 1.46989 3.11 2.49989C2.08 3.52989 1.5 4.92989 1.5 6.38989C1.5 7.84989 2.08 9.24989 3.11 10.2799L4.17 11.3399L11.95 19.1199L19.73 11.3399L20.79 10.2799C21.3 9.76989 21.71 9.15989 21.98 8.49989C22.26 7.82989 22.4 7.11989 22.4 6.38989C22.4 5.65989 22.26 4.94989 21.98 4.27989C21.7 3.60989 21.3 3.00989 20.79 2.49989Z" fill="#BF0D40"/>
<path d="M11.95 20.2301C11.68 20.2301 11.43 20.1201 11.24 19.9401L2.4 11.1001C1.17 9.87012 0.5 8.24012 0.5 6.50012C0.5 4.76012 1.18 3.13012 2.4 1.90012C3.62 0.670117 5.26 0.000117198 7 0.000117198C8.74 0.000117198 10.37 0.680117 11.6 1.90012L11.95 2.25012L12.3 1.90012C12.91 1.29012 13.62 0.820117 14.41 0.490117C16 -0.169883 17.8 -0.169883 19.39 0.490117C20.18 0.820117 20.89 1.29012 21.5 1.90012C22.11 2.51012 22.58 3.22012 22.91 4.01012C23.24 4.80012 23.41 5.64012 23.41 6.50012C23.41 7.36012 23.24 8.19012 22.91 8.99012C22.58 9.78012 22.11 10.4901 21.5 11.1001L12.66 19.9401C12.47 20.1301 12.22 20.2301 11.95 20.2301ZM7 2.00012C5.8 2.00012 4.67 2.47012 3.82 3.32012C2.97 4.17012 2.5 5.30012 2.5 6.50012C2.5 7.70012 2.97 8.83012 3.82 9.68012L11.95 17.8101L20.08 9.68012C20.5 9.26012 20.83 8.77012 21.06 8.22012C21.29 7.67012 21.4 7.09012 21.4 6.50012C21.4 5.91012 21.28 5.33012 21.06 4.78012C20.83 4.23012 20.5 3.74012 20.08 3.32012C19.66 2.90012 19.17 2.57012 18.62 2.34012C17.52 1.88012 16.27 1.88012 15.18 2.34012C14.63 2.57012 14.14 2.90012 13.72 3.32012L12.66 4.38012C12.27 4.77012 11.64 4.77012 11.25 4.38012L10.19 3.32012C9.34 2.47012 8.21 2.00012 7.01 2.00012H7Z" fill="#990B33"/>
</g>
<defs>
<clipPath id="clip0_1415_5765">
<rect width="22.9" height="20.23" fill="white" transform="translate(0.5)"/>
</clipPath>
</defs>
</svg>
