<svg width="40" height="25" viewBox="0 0 40 25" fill="none" xmlns="http://www.w3.org/2000/svg">
<path fill-rule="evenodd" clip-rule="evenodd" d="M17.5171 0.0584349C17.7386 -0.0271696 17.9834 -0.0311401 18.2076 0.0472342L25.3988 2.56127C25.6298 2.63035 25.8352 2.76171 25.9942 2.938C26.0131 2.95887 26.031 2.98052 26.048 3.00289L38.7831 19.7606L38.7954 19.7772C39.0033 20.0627 39.0446 20.3815 39.0446 20.5788C39.0446 20.6939 39.0311 20.8313 38.9879 20.975C38.9493 21.1034 38.8586 21.3317 38.6384 21.5208C38.585 21.5667 38.5269 21.6068 38.465 21.6404L34.3867 23.8607C34.24 23.9406 34.0757 23.9824 33.9086 23.9824H2.20936C1.99032 23.9915 1.77363 23.9403 1.58238 23.8354C1.37064 23.7192 1.20174 23.5438 1.09282 23.3353C0.984043 23.1272 0.938503 22.8929 0.959622 22.6614C0.97993 22.4387 1.06142 22.2238 1.19781 22.0422L4.46139 17.5449C4.78576 17.0979 5.41107 16.9985 5.85806 17.3228C6.30506 17.6472 6.40446 18.2725 6.08009 18.7195L3.71229 21.9824H33.654L36.6995 20.3244L24.5977 4.3999L18.1322 2.1396L9.82505 13.5916C9.50076 14.0387 8.87547 14.1382 8.42842 13.8139C7.98136 13.4896 7.88184 12.8643 8.20613 12.4173L16.8629 0.483331C16.9761 0.327252 17.132 0.207233 17.3119 0.13773L17.5171 0.0584349Z" fill="white"/>
<path fill-rule="evenodd" clip-rule="evenodd" d="M17.2239 0.183526C17.6699 -0.142149 18.2955 -0.0445715 18.6212 0.401471L34.6779 22.3927C35.0036 22.8387 34.906 23.4643 34.4599 23.79C34.0139 24.1157 33.3883 24.0181 33.0626 23.572L17.0059 1.58084C16.6802 1.1348 16.7778 0.5092 17.2239 0.183526Z" fill="white"/>
<path fill-rule="evenodd" clip-rule="evenodd" d="M17.6247 7.74759C17.8612 7.66634 18.1171 7.66017 18.3576 7.73023C18.5977 7.8002 18.8071 7.9416 18.9611 8.13087L18.9782 8.15182L26.689 18.7463C27.014 19.1929 26.9154 19.8183 26.4689 20.1433C26.0223 20.4683 25.3969 20.3698 25.0719 19.9233L18.8008 11.3068V22.1101C18.8008 22.6624 18.3531 23.1101 17.8008 23.1101C17.2485 23.1101 16.8008 22.6624 16.8008 22.1101V8.86787L16.8022 8.8415C16.8148 8.6028 16.8968 8.37054 17.0414 8.17519C17.1863 7.9795 17.3885 7.82873 17.6247 7.74759Z" fill="white"/>
<path fill-rule="evenodd" clip-rule="evenodd" d="M18.748 7.98927C19.0429 8.34278 19.0584 8.852 18.7855 9.22277L8.59438 23.0667C8.45111 23.2659 8.24836 23.4199 8.00992 23.5024C7.76496 23.5872 7.49924 23.5904 7.2522 23.5114C7.00553 23.4325 6.79465 23.2773 6.64602 23.0738C6.51697 22.897 6.43951 22.6905 6.41836 22.4769C6.23484 21.3364 5.75247 20.2721 5.02649 19.3986C4.29661 18.5205 3.34944 17.8698 2.29093 17.5138C2.04451 17.4386 1.83188 17.287 1.68039 17.0859C1.52028 16.8734 1.43604 16.616 1.43604 16.3546C1.43604 16.0932 1.52028 15.8358 1.68039 15.6233C1.81348 15.4466 1.99376 15.3082 2.2027 15.2262L17.5411 7.73146C17.9548 7.52934 18.453 7.63577 18.748 7.98927ZM4.48589 16.3365C5.26886 16.8054 5.97227 17.4076 6.56458 18.1202C7.1665 18.8444 7.63935 19.6653 7.96712 20.5451L14.7613 11.3158L4.48589 16.3365Z" fill="white"/>
</svg>
