<svg width="24" height="24" viewBox="0 0 24 24" fill="none" xmlns="http://www.w3.org/2000/svg">
<g clip-path="url(#clip0_1207_15780)">
<path d="M13.425 19.5636L13.2917 20H6.5L6.66667 19.5636C7.12527 19.5767 7.58326 19.5222 8.025 19.402C8.33743 19.2957 8.61013 19.1016 8.80833 18.8444C9.18966 18.2301 9.47076 17.5623 9.64167 16.8646L12.5083 7.23232C12.7153 6.64526 12.8386 6.03355 12.875 5.41414C12.8817 5.22964 12.8261 5.04807 12.7167 4.89697C12.5958 4.74497 12.4302 4.63224 12.2417 4.57374C11.8281 4.47075 11.4018 4.42451 10.975 4.43636L11.125 4H17.5L17.3333 4.43636C16.9398 4.41076 16.5451 4.46583 16.175 4.59798C15.8357 4.7418 15.5463 4.97749 15.3417 5.27677C15.033 5.90094 14.7982 6.55696 14.6417 7.23232L11.7833 16.9293C11.6013 17.4551 11.4702 17.9961 11.3917 18.5455C11.3862 18.7236 11.4386 18.8989 11.5417 19.0465C11.6684 19.1996 11.8397 19.3123 12.0333 19.3697C12.4893 19.4794 12.9556 19.5444 13.425 19.5636Z" fill="white"/>
</g>
<defs>
<clipPath id="clip0_1207_15780">
<rect width="11" height="16" fill="white" transform="translate(6.5 4)"/>
</clipPath>
</defs>
</svg>
