<svg width="24" height="24" viewBox="0 0 24 24" fill="none" xmlns="http://www.w3.org/2000/svg">
<path d="M7.48887 23.1693C6.88031 23.1744 6.29309 22.9452 5.84887 22.5293L1.69887 18.5293C1.23139 18.0297 0.980567 17.3654 1.00118 16.6816C1.02179 15.9977 1.31215 15.3498 1.80887 14.8793L15.3889 0.84926C15.843 0.348941 16.4747 0.0459015 17.1491 0.00480013C17.8235 -0.0363013 18.4873 0.18779 18.9989 0.62926L23.1489 4.62926C23.3919 4.86901 23.5803 5.15844 23.7011 5.47774C23.8219 5.79704 23.8723 6.13867 23.8489 6.47926C23.8002 7.15616 23.5132 7.7939 23.0389 8.27926L9.45887 22.2793C8.99181 22.7699 8.36324 23.0753 7.68887 23.1393L7.48887 23.1693ZM17.3889 1.97926C17.283 1.98334 17.1789 2.00843 17.0828 2.05306C16.9866 2.09769 16.9003 2.16099 16.8289 2.23926L3.24887 16.2393C2.96887 16.5293 2.92887 16.9093 3.08887 17.0593L7.23887 21.0593C7.28073 21.0924 7.32896 21.1166 7.38056 21.1304C7.43217 21.1442 7.48605 21.1472 7.53887 21.1393C7.73762 21.1173 7.92201 21.0251 8.05887 20.8793L21.6289 6.87926C21.771 6.73682 21.8593 6.54952 21.8789 6.34926C21.8882 6.29725 21.8849 6.24376 21.8692 6.19329C21.8535 6.14283 21.826 6.09686 21.7889 6.05926L17.6389 2.05926C17.5681 2.00294 17.4792 1.97448 17.3889 1.97926Z" fill="white"/>
<path d="M14.1627 3.93273L12.9253 5.17017L18.8296 11.0745L20.0671 9.83707L14.1627 3.93273Z" fill="white"/>
<path d="M6.19886 11.548L4.96143 12.7855L11.1415 18.9656L12.379 17.7281L6.19886 11.548Z" fill="white"/>
<path d="M10.2085 13.2993C9.59675 13.291 8.99379 13.152 8.44015 12.8916C7.8865 12.6312 7.39497 12.2553 6.99854 11.7893L8.31854 10.6493C8.66116 11.0321 9.11144 11.3025 9.61038 11.4251C10.1093 11.5477 10.6337 11.5167 11.1147 11.3361C11.5957 11.1556 12.011 10.834 12.3061 10.4135C12.6012 9.9929 12.7624 9.493 12.7685 8.97926C12.7753 8.5972 12.6951 8.2186 12.534 7.87211C12.3728 7.52562 12.135 7.2203 11.8385 6.97926L12.9985 5.67926C13.683 6.24266 14.1766 7.00387 14.4118 7.85865C14.647 8.71343 14.6122 9.62001 14.3122 10.4543C14.0122 11.2885 13.4617 12.0096 12.7361 12.5189C12.0104 13.0282 11.1451 13.3008 10.2585 13.2993H10.2085Z" fill="white"/>
</svg>
