<svg width="24" height="24" viewBox="0 0 24 24" fill="none" xmlns="http://www.w3.org/2000/svg">
<path d="M10.8791 12.321V4.95885H8.961C8.41633 4.92816 7.87022 4.983 7.34239 5.12137C6.91896 5.27713 6.55416 5.56107 6.29838 5.93396C5.97631 6.43379 5.79714 7.01283 5.78042 7.60791H5.36768L5.55382 3.98373H18.5675L18.7455 7.63229H18.3004C18.2595 7.15506 18.1391 6.68811 17.9443 6.25087C17.717 5.83325 17.3703 5.4936 16.9489 5.27576C16.4425 5.04113 15.8873 4.93243 15.3302 4.95885H13.137V12.3372M13.137 13.1498V17.294C13.0621 17.9135 13.172 18.5413 13.4527 19.098C13.6347 19.2722 13.8514 19.4057 14.0885 19.4898C14.3257 19.5738 14.5779 19.6065 14.8285 19.5856H15.3788V20.0162H8.62109V19.5856H9.18761C9.45743 19.6139 9.73003 19.5737 9.98034 19.4686C10.2306 19.3635 10.4506 19.197 10.6201 18.9842C10.8462 18.4515 10.9352 17.8703 10.8791 17.294V13.1498" fill="white"/>
<path fill-rule="evenodd" clip-rule="evenodd" d="M3.85693 11.7928C3.85693 11.3786 4.19272 11.0428 4.60693 11.0428H19.393C19.8072 11.0428 20.143 11.3786 20.143 11.7928C20.143 12.207 19.8072 12.5428 19.393 12.5428H4.60693C4.19272 12.5428 3.85693 12.207 3.85693 11.7928Z" fill="white"/>
</svg>
