<svg width="24" height="24" viewBox="0 0 24 24" fill="none" xmlns="http://www.w3.org/2000/svg">
<path d="M19.3403 23.2H19.0803C18.7245 23.1619 18.3797 23.0539 18.0657 22.8823C17.7517 22.7107 17.4746 22.4789 17.2503 22.2L12.1903 15.66C11.9973 15.2924 11.9395 14.8687 12.0273 14.4629C12.115 14.057 12.3426 13.695 12.6703 13.44L13.6703 12.61C13.9864 12.3602 14.3775 12.2243 14.7803 12.2243C15.1832 12.2243 15.5743 12.3602 15.8903 12.61L21.4003 18.73C21.632 19.0054 21.8069 19.3239 21.915 19.6671C22.0231 20.0103 22.0623 20.3716 22.0303 20.73C21.9944 21.0864 21.8874 21.4319 21.7156 21.7463C21.5439 22.0606 21.3108 22.3373 21.0303 22.56L20.9603 22.62C20.4995 22.9875 19.9297 23.1915 19.3403 23.2ZM14.0903 14.88L18.8103 21C18.9338 21.1416 19.1084 21.2285 19.2959 21.2416C19.4833 21.2547 19.6683 21.193 19.8103 21.07C19.8816 21.0096 19.9401 20.9356 19.9823 20.8522C20.0245 20.7689 20.0496 20.6779 20.0562 20.5848C20.0627 20.4916 20.0505 20.398 20.0203 20.3096C19.9901 20.2212 19.9425 20.1397 19.8803 20.07L14.7503 14.36L14.0903 14.88Z" fill="white"/>
<path d="M9 16C7.41775 16 5.87103 15.5308 4.55544 14.6518C3.23985 13.7727 2.21447 12.5233 1.60897 11.0615C1.00347 9.59966 0.84504 7.99113 1.15372 6.43928C1.4624 4.88743 2.22433 3.46197 3.34315 2.34315C4.46197 1.22433 5.88743 0.462403 7.43928 0.153721C8.99113 -0.15496 10.5997 0.00346625 12.0615 0.608967C13.5233 1.21447 14.7727 2.23985 15.6518 3.55544C16.5308 4.87103 17 6.41775 17 8C17 10.1217 16.1571 12.1566 14.6569 13.6569C13.1566 15.1571 11.1217 16 9 16ZM9 2C7.81332 2 6.65328 2.3519 5.66658 3.01119C4.67989 3.67047 3.91085 4.60755 3.45673 5.7039C3.0026 6.80026 2.88378 8.00666 3.11529 9.17055C3.3468 10.3344 3.91825 11.4035 4.75736 12.2426C5.59648 13.0818 6.66558 13.6532 7.82946 13.8847C8.99335 14.1162 10.1997 13.9974 11.2961 13.5433C12.3925 13.0892 13.3295 12.3201 13.9888 11.3334C14.6481 10.3467 15 9.18669 15 8C15 6.4087 14.3679 4.88258 13.2426 3.75736C12.1174 2.63214 10.5913 2 9 2Z" fill="white"/>
<path d="M13 6.34C12.9098 6.34134 12.8211 6.31778 12.7434 6.27191C12.6658 6.22603 12.6023 6.15963 12.56 6.08C12.2048 5.44839 11.6878 4.92278 11.0621 4.55722C10.4364 4.19165 9.72465 3.99932 9 4C8.86739 4 8.74021 3.94732 8.64645 3.85355C8.55268 3.75978 8.5 3.63261 8.5 3.5C8.5 3.36739 8.55268 3.24021 8.64645 3.14645C8.74021 3.05268 8.86739 3 9 3C9.90919 2.99559 10.803 3.23431 11.589 3.69145C12.3749 4.14859 13.0243 4.80752 13.47 5.6C13.5313 5.71716 13.5448 5.85356 13.5074 5.98042C13.4701 6.10729 13.385 6.2147 13.27 6.28C13.1869 6.32354 13.0937 6.34425 13 6.34Z" fill="white"/>
</svg>
