<svg width="24" height="24" viewBox="0 0 24 24" fill="none" xmlns="http://www.w3.org/2000/svg">
<path d="M6.3607 20.0667H1.47181C1.40424 20.0683 1.33776 20.084 1.27656 20.1127C1.21537 20.1414 1.16078 20.1825 1.11626 20.2333C1.07431 20.2818 1.0428 20.3384 1.02368 20.3995C1.00457 20.4607 0.998257 20.5252 1.00514 20.5889C1.13391 21.5325 1.5997 22.3976 2.31653 23.0246C3.03336 23.6515 3.95281 23.998 4.90514 24H19.2274C20.1784 23.9977 21.0964 23.6508 21.8114 23.0237C22.5264 22.3965 22.99 21.5315 23.1162 20.5889C23.1253 20.5251 23.1201 20.4601 23.1008 20.3985C23.0816 20.337 23.0489 20.2806 23.0051 20.2333C22.9628 20.1828 22.9102 20.1418 22.8508 20.1131C22.7914 20.0843 22.7266 20.0685 22.6607 20.0667H6.3607ZM15.9274 20.0667H8.20514H15.9274Z" fill="white"/>
<path d="M7.00527 8.77777C6.8955 8.78025 6.78643 8.75979 6.68503 8.7177C6.58362 8.6756 6.49212 8.61281 6.41638 8.53333C6.33776 8.45672 6.27528 8.36515 6.23261 8.26401C6.18995 8.16287 6.16797 8.05421 6.16797 7.94444C6.16797 7.83467 6.18995 7.72601 6.23261 7.62487C6.27528 7.52373 6.33776 7.43216 6.41638 7.35555L8.51638 5.25555C8.59299 5.17693 8.68456 5.11445 8.7857 5.07178C8.88684 5.02912 8.9955 5.00714 9.10527 5.00714C9.21504 5.00714 9.3237 5.02912 9.42484 5.07178C9.52598 5.11445 9.61755 5.17693 9.69416 5.25555C9.85021 5.4118 9.93787 5.62361 9.93787 5.84444C9.93787 6.06528 9.85021 6.27708 9.69416 6.43333L7.59416 8.53333C7.51722 8.61123 7.4255 8.67298 7.32437 8.71496C7.22325 8.75693 7.11476 8.77829 7.00527 8.77777Z" fill="white"/>
<path d="M7.14998 11.8333C6.92999 11.8285 6.71981 11.7413 6.56109 11.5889C6.40504 11.4326 6.31738 11.2208 6.31738 11C6.31738 10.7792 6.40504 10.5674 6.56109 10.4111L11.4722 5.48889C11.6285 5.33283 11.8403 5.24518 12.0611 5.24518C12.2819 5.24518 12.4937 5.33283 12.65 5.48889C12.7286 5.5655 12.7911 5.65707 12.8337 5.75821C12.8764 5.85935 12.8984 5.96801 12.8984 6.07778C12.8984 6.18755 12.8764 6.29621 12.8337 6.39735C12.7911 6.49849 12.7286 6.59006 12.65 6.66667L7.73887 11.5889C7.58015 11.7413 7.36998 11.8285 7.14998 11.8333Z" fill="white"/>
<path d="M12.1161 21.7556C9.96464 21.7556 7.86153 21.1176 6.07269 19.9223C4.28385 18.7271 2.88962 17.0282 2.06631 15.0405C1.24299 13.0529 1.02758 10.8657 1.4473 8.75563C1.86702 6.64555 2.90303 4.70732 4.42431 3.18603C5.9456 1.66475 7.88383 0.62874 9.99391 0.209018C12.104 -0.210703 14.2912 0.00471312 16.2788 0.828026C18.2665 1.65134 19.9653 3.04557 21.1606 4.83441C22.3559 6.62325 22.9938 8.72636 22.9938 10.8778C22.9909 13.7618 21.8439 16.5269 19.8046 18.5663C17.7652 20.6056 15.0001 21.7526 12.1161 21.7556ZM12.1161 2.22223C10.4042 2.22223 8.73069 2.72987 7.30729 3.68095C5.88389 4.63204 4.77449 5.98385 4.11937 7.56544C3.46425 9.14704 3.29285 10.8874 3.62682 12.5664C3.9608 14.2454 4.78516 15.7877 5.99566 16.9982C7.20616 18.2087 8.74844 19.033 10.4274 19.367C12.1065 19.701 13.8468 19.5296 15.4284 18.8745C17.01 18.2194 18.3618 17.1099 19.3129 15.6865C20.264 14.2632 20.7716 12.5897 20.7716 10.8778C20.7687 8.58309 19.8558 6.38322 18.2332 4.76063C16.6106 3.13803 14.4108 2.22517 12.1161 2.22223Z" fill="white"/>
</svg>
