<svg width="24" height="24" viewBox="0 0 24 24" fill="none" xmlns="http://www.w3.org/2000/svg">
<path d="M6.05014 16.2442H4.39014V9.61424L2.39014 10.2642V8.94424L5.86014 7.69424H6.05014V16.2442Z" fill="white"/>
<path d="M9.03023 15.4443C9.02646 15.3277 9.04671 15.2116 9.08972 15.1033C9.13273 14.9949 9.19758 14.8965 9.28023 14.8143C9.36805 14.7307 9.47167 14.6656 9.58501 14.6227C9.69834 14.5797 9.81911 14.5599 9.94023 14.5643C10.1902 14.5597 10.4328 14.6489 10.6202 14.8143C10.7029 14.8965 10.7677 14.9949 10.8107 15.1033C10.8537 15.2116 10.874 15.3277 10.8702 15.4443C10.8737 15.5578 10.8532 15.6707 10.8101 15.7758C10.767 15.8809 10.7023 15.9758 10.6202 16.0543C10.53 16.1403 10.4232 16.2068 10.3062 16.2498C10.1892 16.2928 10.0647 16.3114 9.94023 16.3043C9.81886 16.311 9.69742 16.2922 9.58374 16.2492C9.47006 16.2061 9.36667 16.1397 9.28023 16.0543C9.19812 15.9758 9.13343 15.8809 9.09036 15.7758C9.04729 15.6707 9.02681 15.5578 9.03023 15.4443Z" fill="white"/>
<path d="M21.6104 15.3542H17.0804C16.2264 15.3542 15.4073 15.015 14.8035 14.4111C14.1996 13.8073 13.8604 12.9882 13.8604 12.1342C13.8604 11.2802 14.1996 10.4612 14.8035 9.85736C15.4073 9.25349 16.2264 8.91425 17.0804 8.91425H21.6104" fill="#D4D4D4"/>
</svg>
