<svg width="19" height="23" viewBox="0 0 19 23" fill="none" xmlns="http://www.w3.org/2000/svg">
<path d="M19 22.275C19 19.7223 17.9991 17.2741 16.2175 15.4691C14.4359 13.6641 12.0196 12.65 9.5 12.65C6.98044 12.65 4.56408 13.6641 2.78249 15.4691C1.00089 17.2741 3.80442e-07 19.7223 0 22.275L9.5 22.275H19Z" fill="white"/>
<path fill-rule="evenodd" clip-rule="evenodd" d="M17.9427 21.275C17.7216 19.3522 16.8675 17.5511 15.5058 16.1716C13.9107 14.5555 11.7501 13.65 9.5 13.65C7.24991 13.65 5.0893 14.5555 3.4942 16.1716C2.13254 17.5511 1.27842 19.3522 1.05729 21.275L17.9427 21.275ZM18.9486 21.275C18.7234 19.0898 17.7649 17.0369 16.2175 15.4691C14.4359 13.6641 12.0196 12.65 9.5 12.65C6.98044 12.65 4.56408 13.6641 2.78249 15.4691C1.23508 17.0369 0.276619 19.0898 0.0513816 21.275C0.0172939 21.6057 0 21.9394 0 22.275L19 22.275C19 21.9394 18.9827 21.6057 18.9486 21.275Z" fill="#C2C2C2"/>
<path d="M16.2857 7.15C16.2857 11.0988 13.1261 14.3 9.22853 14.3C5.33098 14.3 2.17139 11.0988 2.17139 7.15C2.17139 3.20116 5.33098 0 9.22853 0C13.1261 0 16.2857 3.20116 16.2857 7.15Z" fill="white"/>
<path fill-rule="evenodd" clip-rule="evenodd" d="M9.22853 13.3C12.5615 13.3 15.2857 10.5589 15.2857 7.15C15.2857 3.74108 12.5615 1 9.22853 1C5.89555 1 3.17139 3.74108 3.17139 7.15C3.17139 10.5589 5.89555 13.3 9.22853 13.3ZM9.22853 14.3C13.1261 14.3 16.2857 11.0988 16.2857 7.15C16.2857 3.20116 13.1261 0 9.22853 0C5.33098 0 2.17139 3.20116 2.17139 7.15C2.17139 11.0988 5.33098 14.3 9.22853 14.3Z" fill="#C2C2C2"/>
</svg>
