<svg width="24" height="24" viewBox="0 0 24 24" fill="none" xmlns="http://www.w3.org/2000/svg">
<path d="M4.11843 6.83926C3.81146 6.83864 3.51685 6.71727 3.29732 6.50097C3.08079 6.2804 2.95788 5.98355 2.9546 5.67324C2.9539 5.51917 2.98387 5.36653 3.04274 5.22435C3.10161 5.08217 3.18818 4.95335 3.29732 4.8455C3.4043 4.73547 3.5321 4.6482 3.67314 4.58886C3.81418 4.52952 3.9656 4.4993 4.11843 4.50001H19.8265C19.9792 4.50011 20.1304 4.53069 20.2713 4.58998C20.4122 4.64928 20.5401 4.73612 20.6476 4.8455C20.8654 5.06521 20.9885 5.36261 20.9903 5.67324C20.9834 5.98278 20.861 6.27834 20.6476 6.50097C20.4281 6.71727 20.1334 6.83864 19.8265 6.83926H4.11843Z" fill="white"/>
<path d="M4.11841 19.5C3.96592 19.5009 3.81474 19.4715 3.67358 19.4133C3.53242 19.3551 3.40406 19.2694 3.2959 19.161C3.18773 19.0527 3.10189 18.9238 3.04332 18.7818C2.98474 18.6399 2.95459 18.4877 2.95459 18.334C2.95468 18.18 2.98502 18.0276 3.04384 17.8855C3.10266 17.7435 3.18881 17.6146 3.29731 17.5062C3.51526 17.2866 3.81028 17.1625 4.11841 17.1607H19.8265C20.1346 17.1626 20.4295 17.2868 20.6473 17.5065C20.8652 17.7261 20.9884 18.0234 20.9903 18.334C20.9848 18.6438 20.8622 18.9399 20.6476 19.1617C20.428 19.378 20.1334 19.4994 19.8265 19.5H4.11841Z" fill="white"/>
<path d="M9.86624 15.2966C9.70622 15.3092 9.54533 15.2884 9.39369 15.2353C9.24204 15.1823 9.10292 15.0982 8.98506 14.9884C8.86721 14.8785 8.77317 14.7453 8.70885 14.597C8.64453 14.4488 8.61133 14.2887 8.61133 14.1269C8.61133 13.9651 8.64453 13.8051 8.70885 13.6568C8.77317 13.5086 8.86721 13.3753 8.98506 13.2655C9.10292 13.1556 9.24204 13.0716 9.39369 13.0185C9.54533 12.9655 9.70622 12.9446 9.86624 12.9573H19.7909C19.9436 12.9574 20.0948 12.988 20.2357 13.0473C20.3766 13.1066 20.5045 13.1934 20.612 13.3028C20.8298 13.5225 20.9529 13.8199 20.9547 14.1305C20.9478 14.4401 20.8254 14.7356 20.612 14.9583C20.3924 15.1746 20.0978 15.2959 19.7909 15.2966H9.86624Z" fill="white"/>
<path d="M9.866 11.0571C9.55888 11.0573 9.264 10.9358 9.0449 10.7188C8.93542 10.6112 8.84864 10.4824 8.78975 10.3402C8.73085 10.198 8.70107 10.0452 8.70218 9.89109C8.70123 9.73675 8.73069 9.58376 8.78884 9.44099C8.84699 9.29821 8.93268 9.1685 9.04094 9.05936C9.1492 8.95023 9.27788 8.86384 9.41951 8.80522C9.56114 8.7466 9.7129 8.71691 9.866 8.71786H19.7906C19.9507 8.7052 20.1115 8.72604 20.2632 8.77907C20.4148 8.83211 20.554 8.91619 20.6718 9.02604C20.7897 9.13589 20.8837 9.26912 20.948 9.41737C21.0123 9.56562 21.0455 9.72568 21.0455 9.88749C21.0455 10.0493 21.0123 10.2094 20.948 10.3576C20.8837 10.5059 20.7897 10.6391 20.6718 10.7489C20.554 10.8588 20.4148 10.9429 20.2632 10.9959C20.1115 11.0489 19.9507 11.0698 19.7906 11.0571H9.866Z" fill="white"/>
<path fill-rule="evenodd" clip-rule="evenodd" d="M7.4357 9.18114C7.04361 8.79219 6.41045 8.79473 6.0215 9.18683L3.92233 11.3029C3.53559 11.6928 3.53559 12.3216 3.92233 12.7115L6.01436 14.8204C6.40331 15.2125 7.03647 15.215 7.42856 14.8261C7.82065 14.4371 7.8232 13.804 7.43425 13.4119L6.04084 12.0072L7.44139 10.5953C7.83034 10.2032 7.82779 9.57009 7.4357 9.18114Z" fill="white"/>
</svg>
