<svg width="36" height="22" viewBox="0 0 36 22" fill="none" xmlns="http://www.w3.org/2000/svg">
<path d="M29.1399 10H28.1399C28.1399 9.88 28.1399 9.76 28.1399 9.63C28.1136 9.41959 28.0444 9.21682 27.9366 9.03422C27.8287 8.85162 27.6846 8.69309 27.5131 8.56842C27.3416 8.44376 27.1463 8.35561 26.9393 8.30944C26.7323 8.26327 26.5181 8.26006 26.3099 8.3C25.9717 8.35826 25.6376 8.43843 25.3099 8.54C25.2073 8.58571 25.0911 8.59046 24.9851 8.55327C24.8791 8.51609 24.7914 8.43979 24.7399 8.34C23.8199 7.14001 22.8799 5.92 21.9999 4.69C21.9436 4.61176 21.8677 4.54969 21.7799 4.51L19.7199 3.79H19.5699L23.5699 9.31001L23.2699 10.01L21.1199 10.2L16.1199 3.35L12.4099 8.41C12.5088 8.37586 12.6057 8.33579 12.6999 8.29L15.6099 6.87C15.9073 6.70351 16.2553 6.65126 16.5885 6.72307C16.9218 6.79487 17.2174 6.98579 17.4199 7.26C18.3599 8.51 19.2699 9.78 20.1899 11.04C19.4599 12.19 19.7999 13.44 19.7299 14.67L17.3999 11.48V19.26H23.2499V21.76H2.58986C2.36716 21.7886 2.14085 21.7644 1.92925 21.6893C1.71764 21.6142 1.5267 21.4903 1.37187 21.3277C1.21705 21.1651 1.10269 20.9683 1.03806 20.7533C0.97343 20.5383 0.960343 20.311 0.999859 20.09C1.05636 19.8338 1.16531 19.592 1.31986 19.38C1.98986 18.44 2.67986 17.51 3.39986 16.51L2.31986 16.05C2.10762 15.9719 1.91711 15.8442 1.76418 15.6776C1.61125 15.511 1.50034 15.3102 1.44067 15.0921C1.38099 14.8739 1.37429 14.6447 1.42111 14.4234C1.46794 14.2022 1.56693 13.9953 1.70986 13.82C1.85536 13.6405 2.0401 13.4968 2.24986 13.4C3.94986 12.55 5.66986 11.72 7.37986 10.88C7.52934 10.7908 7.65873 10.6717 7.75986 10.53C9.90986 7.61 11.9999 4.67 14.1499 1.74C14.4299 1.37 14.6999 0.990004 14.9799 0.610004C15.1642 0.351235 15.4285 0.160188 15.732 0.0662393C16.0356 -0.0277097 16.3615 -0.0193601 16.6599 0.0900044C18.7532 0.810004 20.8432 1.54 22.9299 2.28C23.2099 2.38972 23.4577 2.56862 23.6499 2.8C25.4499 5.14 27.2365 7.47334 29.0099 9.8L29.1399 10ZM9.50986 19.24H14.8499V12L9.50986 19.24ZM12.1599 11.41V11.36L5.28986 14.71C5.72986 15.16 6.18986 15.57 6.56986 16.04C6.94986 16.51 7.27986 17.04 7.62986 17.57L12.1599 11.41ZM4.52986 19.25H5.52986L5.12986 18.36L4.52986 19.25Z" fill="white"/>
<path d="M24.1696 15.72C23.5496 15.72 22.9496 15.72 22.3596 15.72C22.1296 15.7403 21.8978 15.7095 21.681 15.63C21.4642 15.5504 21.2676 15.424 21.1052 15.2597C20.9429 15.0955 20.8187 14.8974 20.7417 14.6796C20.6647 14.4619 20.6367 14.2298 20.6596 14C20.6596 13.5 20.6596 13 20.6596 12.51C20.6582 12.3079 20.6976 12.1076 20.7755 11.9211C20.8533 11.7346 20.9681 11.5658 21.1129 11.4247C21.2577 11.2837 21.4294 11.1734 21.6179 11.1004C21.8064 11.0274 22.0076 10.9933 22.2096 11H24.0796H24.1696C24.1696 10.81 24.1696 10.6 24.1696 10.39C24.1596 10.2367 24.2058 10.0851 24.2998 9.96353C24.3937 9.84199 24.5288 9.75894 24.6796 9.73002L26.3196 9.32002C26.4243 9.28141 26.5371 9.27039 26.6472 9.288C26.7574 9.30561 26.8611 9.35127 26.9485 9.42057C27.0359 9.48988 27.104 9.58051 27.1462 9.68374C27.1884 9.78697 27.2034 9.89933 27.1896 10.01V11.01H27.5296C28.1096 11.01 28.6996 11.01 29.2796 11.01C29.6357 11.0147 29.9765 11.1548 30.2329 11.4019C30.4893 11.6489 30.6419 11.9844 30.6596 12.34C30.6996 13.0394 30.6996 13.7406 30.6596 14.44C30.6318 14.799 30.4686 15.1339 30.2031 15.3772C29.9376 15.6204 29.5897 15.7536 29.2296 15.75C28.6596 15.75 28.0796 15.75 27.5096 15.75H27.1896V21C27.1896 21.61 26.9796 21.82 26.3596 21.82H24.8996C24.8003 21.8353 24.6987 21.827 24.6031 21.7957C24.5076 21.7645 24.4207 21.7111 24.3496 21.64C24.2785 21.5689 24.2252 21.4821 24.1939 21.3865C24.1626 21.291 24.1543 21.1894 24.1696 21.09V15.69V15.72ZM25.6596 14.46H28.9996C29.4296 14.46 29.4696 14.46 29.4696 14C29.4696 13.54 29.4696 13.06 29.4696 12.59C29.4696 12.32 29.3496 12.21 29.0796 12.21H22.2996C22.0396 12.21 21.9296 12.32 21.9296 12.58C21.9296 13.06 21.9296 13.58 21.9296 14.04C21.9296 14.5 21.9296 14.46 22.3496 14.46H25.6596ZM25.4496 15.73V20.57H25.9096V15.73H25.4496ZM25.9096 10.59L25.4496 10.87L25.9096 10.99V10.59Z" fill="white"/>
<path d="M28.1001 21.78V16.78C28.2902 16.6748 28.514 16.6483 28.7234 16.7063C28.9328 16.7643 29.1111 16.902 29.2201 17.09C29.6601 17.7 30.1101 18.3 30.5701 18.93L32.1101 18.09L30.6701 16.2C31.0566 15.8531 31.3465 15.4117 31.5112 14.9192C31.676 14.4266 31.7101 13.8997 31.6101 13.39H31.6801L32.6101 14.61C33.3101 15.54 34.0201 16.46 34.7301 17.39C34.8872 17.5588 35.0034 17.7615 35.0694 17.9824C35.1355 18.2034 35.1497 18.4366 35.111 18.6639C35.0723 18.8912 34.9818 19.1066 34.8463 19.2932C34.7109 19.4798 34.5342 19.6327 34.3301 19.74C33.1701 20.38 32.0101 21.02 30.8501 21.64C30.6817 21.7385 30.4942 21.7999 30.3001 21.82C29.5601 21.8 28.8201 21.78 28.1001 21.78Z" fill="white"/>
<path d="M21 16.46C21.3596 16.5483 21.7234 16.6184 22.09 16.67C22.45 16.67 22.81 16.67 23.18 16.67V18.57C22.9829 18.569 22.789 18.5203 22.6148 18.428C22.4407 18.3357 22.2915 18.2025 22.18 18.04C21.79 17.52 21.41 17 21 16.46Z" fill="white"/>
</svg>
