<svg width="24" height="24" viewBox="0 0 24 24" fill="none" xmlns="http://www.w3.org/2000/svg">
<path d="M6.03428 23.9997C5.71688 23.9938 5.40381 23.9239 5.11327 23.7941C4.82273 23.6642 4.56052 23.4771 4.34188 23.2434L0.701632 19.4513C0.491927 19.259 0.322051 19.0263 0.201911 18.7666C0.0817717 18.5069 0.013774 18.2256 0.00188461 17.939C-0.0100048 17.6524 0.0344521 17.3662 0.132662 17.0973C0.230872 16.8283 0.380869 16.5818 0.573904 16.3723L16.6464 0.53407C16.8587 0.345659 17.1057 0.201943 17.3732 0.11127C17.6407 0.0205973 17.9233 -0.0152253 18.2045 0.00588313C18.4858 0.0269916 18.7601 0.10461 19.0115 0.234231C19.263 0.363851 19.4865 0.54289 19.6692 0.760948L23.3095 4.57465C23.5169 4.76756 23.6845 5.00027 23.8028 5.25934C23.921 5.51841 23.9875 5.79869 23.9984 6.084C24.0093 6.3693 23.9644 6.65397 23.8662 6.92154C23.7681 7.18912 23.6186 7.43429 23.4266 7.6429L7.36478 23.4703C7.00762 23.8183 6.52927 24.0086 6.03428 23.9997ZM2.22372 17.928L5.87462 21.7417C5.90147 21.7776 5.93868 21.804 5.98106 21.8174L21.8619 6.19521C21.8424 6.1524 21.8173 6.11243 21.7874 6.07637L18.1046 2.26266C18.0829 2.22789 18.0579 2.19532 18.0301 2.16543L2.13857 17.8092C2.15808 17.852 2.18314 17.892 2.21308 17.928H2.22372Z" fill="white"/>
<path d="M10.0577 20.078C9.77693 20.0739 9.50912 19.9574 9.3126 19.7538L7.72665 18.1441C7.55227 17.9374 7.46115 17.6716 7.4715 17.3997C7.48184 17.1278 7.5929 16.8698 7.78246 16.6774C7.97202 16.485 8.22614 16.3723 8.49402 16.3618C8.76191 16.3513 9.02383 16.4438 9.22745 16.6208L10.8134 18.2305C10.9635 18.3816 11.0659 18.5747 11.1075 18.7851C11.1491 18.9955 11.128 19.2137 11.0469 19.4119C10.9658 19.6101 10.8284 19.7793 10.6523 19.8979C10.4761 20.0165 10.2691 20.0792 10.0577 20.078Z" fill="white"/>
<path d="M12.6229 17.4743C12.4821 17.4737 12.3427 17.4447 12.213 17.3891C12.0833 17.3334 11.9657 17.2522 11.8672 17.1502L10.2812 15.5404C10.083 15.338 9.97168 15.0642 9.97168 14.7787C9.97168 14.4933 10.083 14.2195 10.2812 14.0171C10.3801 13.9158 10.4979 13.8354 10.6276 13.7806C10.7573 13.7257 10.8964 13.6975 11.0369 13.6975C11.1774 13.6975 11.3166 13.7257 11.4463 13.7806C11.576 13.8354 11.6937 13.9158 11.7926 14.0171L13.3786 15.6268C13.5287 15.7779 13.6311 15.971 13.6727 16.1814C13.7143 16.3918 13.6932 16.61 13.6121 16.8082C13.531 17.0064 13.3936 17.1756 13.2175 17.2942C13.0413 17.4128 12.8343 17.4755 12.6229 17.4743Z" fill="white"/>
<path d="M15.4222 14.8382C15.2814 14.8376 15.1421 14.8086 15.0123 14.753C14.8826 14.6974 14.7651 14.6162 14.6665 14.5141L13.0805 12.9043C12.8823 12.7019 12.771 12.4281 12.771 12.1427C12.771 11.8572 12.8823 11.5834 13.0805 11.381C13.1795 11.2797 13.2972 11.1994 13.4269 11.1445C13.5566 11.0897 13.6957 11.0614 13.8362 11.0614C13.9768 11.0614 14.1159 11.0897 14.2456 11.1445C14.3753 11.1994 14.493 11.2797 14.592 11.381L16.1779 12.9691C16.328 13.1203 16.4304 13.3133 16.472 13.5237C16.5136 13.7341 16.4925 13.9523 16.4114 14.1505C16.3303 14.3487 16.193 14.5179 16.0168 14.6365C15.8406 14.7551 15.6336 14.8178 15.4222 14.8166V14.8382Z" fill="white"/>
<path d="M17.9344 12.2885C17.7943 12.2893 17.6554 12.2621 17.5257 12.2083C17.396 12.1545 17.2781 12.0753 17.1786 11.9752L15.5927 10.3654C15.4929 10.265 15.4137 10.1455 15.3597 10.0139C15.3057 9.88221 15.2778 9.741 15.2778 9.59838C15.2778 9.45576 15.3057 9.31455 15.3597 9.18289C15.4137 9.05124 15.4929 8.93175 15.5927 8.83131C15.7921 8.63009 16.0619 8.51715 16.3431 8.51715C16.6243 8.51715 16.8941 8.63009 17.0935 8.83131L18.6794 10.4411C18.8289 10.5915 18.9311 10.7836 18.973 10.993C19.0149 11.2024 18.9947 11.4197 18.915 11.6174C18.8352 11.8152 18.6995 11.9845 18.5249 12.1039C18.3504 12.2234 18.1449 12.2876 17.9344 12.2885Z" fill="white"/>
<path d="M20.6059 9.57677C20.3251 9.57271 20.0573 9.45621 19.8608 9.25266L18.2749 7.6429C18.0766 7.44048 17.9653 7.16666 17.9653 6.88124C17.9653 6.59583 18.0766 6.322 18.2749 6.11958C18.4743 5.91836 18.7441 5.80542 19.0253 5.80542C19.3065 5.80542 19.5762 5.91836 19.7757 6.11958L21.3616 7.72933C21.5117 7.88045 21.6141 8.07351 21.6557 8.28391C21.6973 8.49431 21.6762 8.71251 21.5951 8.9107C21.514 9.10889 21.3767 9.27808 21.2005 9.3967C21.0243 9.51533 20.8173 9.57801 20.6059 9.57677Z" fill="white"/>
</svg>
