<svg width="22" height="22" viewBox="0 0 22 22" fill="none" xmlns="http://www.w3.org/2000/svg">
<g clip-path="url(#clip0_1415_5753)">
<path fill-rule="evenodd" clip-rule="evenodd" d="M21.7098 0.290059C22.0998 0.680059 22.0998 1.31006 21.7098 1.70006L10.7098 12.7001C10.3198 13.0901 9.68982 13.0901 9.29982 12.7001C8.90982 12.3101 8.90982 11.6801 9.29982 11.2901L20.2898 0.290059C20.6798 -0.0999414 21.3098 -0.0999414 21.6998 0.290059H21.7098Z" fill="white"/>
<path fill-rule="evenodd" clip-rule="evenodd" d="M21.7102 0.289962C21.9802 0.559962 22.0702 0.959962 21.9502 1.32996L14.9502 21.33C14.8102 21.72 14.4602 21.98 14.0502 22C13.6402 22.02 13.2602 21.78 13.1002 21.41L9.26019 12.76L0.590185 8.90996C0.220185 8.74996 -0.0198152 8.36996 0.000184789 7.95996C0.0201848 7.54996 0.280185 7.18996 0.670185 7.05996L20.6702 0.0599619C21.0302 -0.0700381 21.4402 0.0299619 21.7102 0.299962V0.289962ZM3.71018 8.10996L10.4002 11.09C10.6302 11.19 10.8102 11.37 10.9102 11.6L13.8902 18.29L19.3702 2.62996L3.71018 8.10996Z" fill="white"/>
</g>
<defs>
<clipPath id="clip0_1415_5753">
<rect width="22" height="22" fill="white"/>
</clipPath>
</defs>
</svg>
