<svg width="22" height="22" viewBox="0 0 22 22" fill="none" xmlns="http://www.w3.org/2000/svg">
<g clip-path="url(#clip0_1414_5130)">
<path d="M11 1L14.09 7.26L21 8.27L16 13.14L17.18 20.02L11 16.77L4.82 20.02L6 13.14L1 8.27L7.91 7.26L11 1Z" fill="white"/>
<path fill-rule="evenodd" clip-rule="evenodd" d="M11.0002 0C11.3802 0 11.7302 0.22 11.9002 0.56L14.7602 6.35L21.1502 7.28C21.5302 7.34 21.8402 7.6 21.9602 7.96C22.0802 8.32 21.9802 8.72 21.7102 8.98L17.0902 13.48L18.1802 19.84C18.2402 20.22 18.0902 20.59 17.7802 20.82C17.4702 21.04 17.0602 21.07 16.7302 20.9L11.0202 17.89L5.31016 20.9C4.97016 21.08 4.56016 21.05 4.26016 20.82C3.95016 20.6 3.80016 20.22 3.86016 19.84L4.95016 13.48L0.300155 8.99C0.0301555 8.72 -0.0698445 8.33 0.0501555 7.97C0.170155 7.61 0.480156 7.34 0.860156 7.29L7.25016 6.36L10.1002 0.56C10.2702 0.22 10.6202 0 11.0002 0ZM11.0002 3.26L8.81016 7.7C8.66016 7.99 8.38016 8.2 8.06016 8.25L3.15016 8.97L6.70016 12.43C6.94016 12.66 7.04016 12.99 6.99016 13.32L6.15016 18.2L10.5402 15.89C10.8302 15.74 11.1802 15.74 11.4702 15.89L15.8602 18.2L15.0202 13.32C14.9602 13 15.0702 12.66 15.3102 12.43L18.8602 8.97L13.9502 8.25C13.6202 8.2 13.3402 8 13.2002 7.7L11.0102 3.26H11.0002Z" fill="#D4D4D4"/>
</g>
<defs>
<clipPath id="clip0_1414_5130">
<rect width="22" height="21.02" fill="white"/>
</clipPath>
</defs>
</svg>
