<svg width="24" height="24" viewBox="0 0 24 24" fill="none" xmlns="http://www.w3.org/2000/svg">
<path d="M18.6496 1.80847H5.65148C5.26218 1.80847 4.88881 1.96312 4.61353 2.23841C4.33825 2.51369 4.18359 2.88705 4.18359 3.27636V6.89471H22.4515V1.80847H18.6496Z" fill="white"/>
<path d="M22.6128 7.06353H4V3.27638C4 2.8384 4.17398 2.41837 4.48368 2.10868C4.79337 1.79898 5.2134 1.625 5.65138 1.625H22.6128V7.06353ZM4.33028 6.73326H22.2826V1.95528H5.65138C5.47761 1.9543 5.30539 1.98781 5.14466 2.05386C4.98394 2.1199 4.83792 2.21718 4.71505 2.34005C4.59218 2.46292 4.4949 2.60894 4.42886 2.76966C4.36281 2.93039 4.3293 3.10261 4.33028 3.27638V6.73326Z" fill="#D4D4D4"/>
<path fill-rule="evenodd" clip-rule="evenodd" d="M21.5326 2.70528H5.64717C5.57261 2.70486 5.4987 2.71922 5.42973 2.74757C5.36076 2.77591 5.2981 2.81765 5.24538 2.87038C5.19265 2.9231 5.15091 2.98576 5.12257 3.05473C5.09422 3.1237 5.07985 3.19761 5.08026 3.27217L5.08029 3.27638L5.08028 5.98326H21.5326V2.70528ZM3.95335 1.57835C4.40369 1.128 5.01449 0.875 5.65138 0.875H23.3628V7.81353H3.25V3.27638C3.25 2.63949 3.503 2.02869 3.95335 1.57835Z" fill="#D4D4D4"/>
<path d="M4.18359 11.8342V12.003H22.4515V6.86539H4.18359V11.8048V11.8342Z" fill="white"/>
<path d="M4 6.73325H22.6128V12.1644H4V6.73325ZM22.2826 11.8709V7.06352H4.33028V11.8342L22.2826 11.8709Z" fill="#D4D4D4"/>
<path fill-rule="evenodd" clip-rule="evenodd" d="M3.25 5.98325H23.3628V12.9144H3.25V5.98325ZM5.08028 7.81352V11.0857L21.5326 11.1193V7.81352H5.08028Z" fill="#D4D4D4"/>
<path d="M4.18359 16.9424V17.1112H22.4515V11.9736H4.18359V16.9131V16.9424Z" fill="white"/>
<path d="M4 11.8342H22.6128V17.2727H4V11.8342ZM22.2826 16.9718V12.1644H4.33028V16.9424L22.2826 16.9718Z" fill="#D4D4D4"/>
<path fill-rule="evenodd" clip-rule="evenodd" d="M3.25 11.0842H23.3628V18.0227H3.25V11.0842ZM5.08028 12.9144V16.1937L21.5326 16.2206V12.9144H5.08028Z" fill="#D4D4D4"/>
<path d="M23.9999 1.80847H13.4678V6.94609H23.9999" fill="white"/>
<path d="M24.0002 7.06353H13.3066V1.625H24.0002M24.0002 1.95528H13.6369V6.73326H24.0002" fill="#D4D4D4"/>
<path fill-rule="evenodd" clip-rule="evenodd" d="M12.5566 0.875H24.0002V2.70528H14.3869V5.98326H24.0002V7.81353H12.5566V0.875Z" fill="#D4D4D4"/>
<path d="M18.6496 22.1915H5.65148C5.26218 22.1915 4.88881 22.0369 4.61353 21.7616C4.33825 21.4863 4.18359 21.1129 4.18359 20.7236V17.1053H22.4515V22.1915H18.6496Z" fill="white"/>
<path d="M22.6128 16.9365H4V20.7236C4 21.1616 4.17398 21.5816 4.48368 21.8913C4.79337 22.201 5.2134 22.375 5.65138 22.375H22.6128V16.9365ZM4.33028 17.2667H22.2826V22.0447H5.65138C5.47761 22.0457 5.30539 22.0122 5.14466 21.9461C4.98394 21.8801 4.83792 21.7828 4.71505 21.66C4.59218 21.5371 4.4949 21.3911 4.42886 21.2303C4.36281 21.0696 4.3293 20.8974 4.33028 20.7236V17.2667Z" fill="#D4D4D4"/>
<path fill-rule="evenodd" clip-rule="evenodd" d="M21.5326 21.2947H5.64717C5.57261 21.2951 5.4987 21.2808 5.42973 21.2524C5.36076 21.2241 5.2981 21.1823 5.24538 21.1296C5.19265 21.0769 5.15091 21.0142 5.12257 20.9453C5.09422 20.8763 5.07985 20.8024 5.08026 20.7278L5.08029 20.7236L5.08028 18.0167H21.5326V21.2947ZM3.95335 22.4217C4.40369 22.872 5.01449 23.125 5.65138 23.125H23.3628V16.1865H3.25V20.7236C3.25 21.3605 3.503 21.9713 3.95335 22.4217Z" fill="#D4D4D4"/>
<path d="M23.9999 22.1915H13.4678V17.0539H23.9999" fill="white"/>
<path d="M24.0002 16.9365H13.3066V22.375H24.0002M24.0002 22.0447H13.6369V17.2667H24.0002" fill="#D4D4D4"/>
<path fill-rule="evenodd" clip-rule="evenodd" d="M12.5566 23.125H24.0002V21.2947H14.3869V18.0167H24.0002V16.1865H12.5566V23.125Z" fill="#D4D4D4"/>
<path d="M23.9999 6.89471H13.4678V12.0323H23.9999" fill="white"/>
<path d="M24.0002 12.1644H13.3066V6.73325H24.0002M24.0002 7.06352H13.6369V11.8342H24.0002" fill="#D4D4D4"/>
<path fill-rule="evenodd" clip-rule="evenodd" d="M12.5566 5.98325H24.0002V7.81352H14.3869V11.0842H24.0002V12.9144H12.5566V5.98325Z" fill="#D4D4D4"/>
<path d="M23.9999 12.003H13.4678V17.1406H23.9999" fill="white"/>
<path d="M24.0002 17.2727H13.3066V11.8342H24.0002M24.0002 12.1351H13.6369V16.9131H24.0002" fill="#D4D4D4"/>
<path fill-rule="evenodd" clip-rule="evenodd" d="M12.5566 11.0842H24.0002V12.8851H14.3869V16.1631H24.0002V18.0227H12.5566V11.0842Z" fill="#D4D4D4"/>
</svg>
