<svg width="24" height="24" viewBox="0 0 24 24" fill="none" xmlns="http://www.w3.org/2000/svg">
<path d="M12.7598 3.40999V11.2C12.7009 11.7049 12.7913 12.2159 13.0198 12.67C13.1643 12.8103 13.3374 12.9178 13.5272 12.9851C13.7171 13.0524 13.9192 13.0779 14.1198 13.06H14.5598V13.41H9.1498V13.06H9.6098C9.82578 13.0817 10.0437 13.0481 10.2432 12.9624C10.4426 12.8767 10.6169 12.7416 10.7498 12.57C10.9339 12.1383 11.0062 11.6671 10.9598 11.2V3.40999M10.9598 4.20999H9.4498C9.02232 4.1882 8.59401 4.23204 8.1798 4.33999C7.82983 4.46218 7.52836 4.69354 7.3198 4.99999C7.05774 5.42041 6.91594 5.90462 6.9098 6.39999H6.5498L6.6998 3.39999H17.0998L17.2398 6.39999H16.8898C16.8521 6.01169 16.7577 5.63099 16.6098 5.26999C16.4339 4.93261 16.1626 4.6544 15.8298 4.46999C15.4351 4.2779 14.9983 4.18848 14.5598 4.20999H12.7598" fill="white"/>
<path d="M16.8598 1.28C17.4194 1.28 17.9561 1.5023 18.3518 1.898C18.7475 2.29371 18.9698 2.83039 18.9698 3.39V13.1C18.9671 13.6588 18.744 14.194 18.3489 14.5891C17.9537 14.9842 17.4186 15.2074 16.8598 15.21H7.14977C6.59016 15.21 6.05347 14.9877 5.65777 14.592C5.26207 14.1963 5.03977 13.6596 5.03977 13.1V3.39C5.03844 3.11254 5.09211 2.83757 5.19768 2.58097C5.30325 2.32438 5.45862 2.09125 5.65482 1.89505C5.85101 1.69886 6.08414 1.54348 6.34074 1.43792C6.59733 1.33235 6.87231 1.27868 7.14977 1.28H16.8598ZM16.8598 0H7.14977C6.25068 0 5.38842 0.35716 4.75267 0.992908C4.11693 1.62866 3.75977 2.49092 3.75977 3.39V13.1C3.76241 13.9974 4.12074 14.857 4.7562 15.4906C5.39166 16.1242 6.25241 16.48 7.14977 16.48H16.8598C17.7554 16.4774 18.6136 16.1204 19.2469 15.4871C19.8802 14.8538 20.2371 13.9956 20.2398 13.1V3.39C20.2398 2.49265 19.884 1.6319 19.2504 0.996437C18.6168 0.360975 17.7571 0.00264706 16.8598 0Z" fill="white"/>
<path d="M22.0101 18.4989C22.1107 18.4989 22.2104 18.5173 22.3033 18.553C22.3961 18.5887 22.4804 18.6411 22.5511 18.707C22.6218 18.7729 22.6775 18.8511 22.7151 18.937C22.7527 19.0229 22.7714 19.1149 22.7701 19.2075V20.5601C22.7701 20.7465 22.6904 20.9253 22.5481 21.0579C22.4059 21.1906 22.2126 21.2663 22.0101 21.2687H2.0001C1.79762 21.2663 1.60433 21.1906 1.46208 21.0579C1.31983 20.9253 1.24008 20.7465 1.2401 20.5601V19.2075C1.23877 19.1149 1.25745 19.0229 1.29505 18.937C1.33265 18.8511 1.38842 18.7729 1.45913 18.707C1.52983 18.6411 1.61406 18.5887 1.70693 18.553C1.7998 18.5173 1.89945 18.4989 2.0001 18.4989H22.0001M22.0001 17.91H2.0001C1.62788 17.9124 1.2718 18.0502 1.00954 18.2933C0.747268 18.5363 0.600088 18.8649 0.600098 19.2075V20.5601C0.605353 20.8986 0.755169 21.2216 1.01715 21.4592C1.27914 21.6968 1.63223 21.83 2.0001 21.83H22.0001C22.3714 21.83 22.7275 21.6943 22.99 21.4527C23.2526 21.2111 23.4001 20.8834 23.4001 20.5417V19.2075C23.4001 18.8649 23.2529 18.5363 22.9907 18.2933C22.7284 18.0502 22.3723 17.9124 22.0001 17.91Z" fill="white"/>
</svg>
