<svg width="24" height="24" viewBox="0 0 24 24" fill="none" xmlns="http://www.w3.org/2000/svg">
<path d="M21.8087 2.61501C22.0227 2.61402 22.2348 2.656 22.4323 2.73845C22.6299 2.8209 22.8088 2.94214 22.9587 3.09501C23.1115 3.24484 23.2328 3.42382 23.3152 3.62136C23.3977 3.81889 23.4397 4.03096 23.4387 4.24501C23.4387 4.45859 23.3964 4.67007 23.3144 4.86727C23.2324 5.06447 23.1121 5.24351 22.9607 5.39407C22.8092 5.54463 22.6294 5.66375 22.4317 5.74457C22.234 5.8254 22.0223 5.86633 21.8087 5.86501H2.24867C1.81874 5.86415 1.40613 5.69551 1.09867 5.39501C0.795398 5.08855 0.623255 4.67613 0.618669 4.24501C0.617685 4.03096 0.659661 3.81889 0.742109 3.62136C0.824558 3.42382 0.945805 3.24484 1.09867 3.09501C1.2485 2.94214 1.42748 2.8209 1.62502 2.73845C1.82255 2.656 2.03462 2.61402 2.24867 2.61501H21.8087Z" fill="white"/>
<path d="M2.24878 13.615C2.02467 13.6326 1.79934 13.6036 1.58695 13.5299C1.37456 13.4563 1.17971 13.3394 1.01465 13.1868C0.849585 13.0342 0.717873 12.8491 0.627793 12.6431C0.537712 12.4372 0.491211 12.2148 0.491211 11.99C0.491211 11.7652 0.537712 11.5428 0.627793 11.3368C0.717873 11.1309 0.849585 10.9458 1.01465 10.7931C1.17971 10.6405 1.37456 10.5237 1.58695 10.45C1.79934 10.3763 2.02467 10.3474 2.24878 10.365H7.68878C8.0105 10.3632 8.32546 10.4572 8.59353 10.6351C8.86159 10.813 9.07063 11.0667 9.19398 11.3638C9.31734 11.6609 9.34944 11.9881 9.28618 12.3035C9.22292 12.6189 9.06717 12.9084 8.83879 13.135C8.68828 13.2869 8.50916 13.4076 8.31178 13.49C8.11441 13.5724 7.90267 13.6149 7.68878 13.615H2.24878Z" fill="white"/>
<path d="M18.6186 9.95496V18.525C18.5685 19.0373 18.6512 19.5538 18.8586 20.025C19.0088 20.2145 19.205 20.3625 19.4286 20.455C19.6506 20.5561 19.8963 20.5941 20.1386 20.565H20.6186V20.955H14.5286V20.615H15.0186C15.2417 20.6336 15.4663 20.6064 15.6786 20.535C15.8893 20.456 16.0828 20.3372 16.2486 20.185C16.4977 19.6872 16.5984 19.1283 16.5386 18.575V9.95496M16.5386 10.835H14.5386C14.0461 10.8093 13.555 10.9055 13.1086 11.115C12.7342 11.3141 12.4277 11.6206 12.2286 11.995C12.0669 12.3915 11.9625 12.809 11.9186 13.235H11.5186L11.6786 9.95496H23.3386L23.5086 13.235H23.1086C23.0773 12.698 22.9085 12.178 22.6186 11.725C22.3739 11.3745 22.0235 11.1117 21.6186 10.975C21.1538 10.8636 20.6761 10.8165 20.1986 10.835H18.6186" fill="white"/>
<path d="M2.24865 21.375C1.81873 21.3741 1.40611 21.2055 1.09865 20.905C0.795381 20.5985 0.623238 20.1861 0.618652 19.755C0.621572 19.3265 0.794168 18.9166 1.09865 18.615C1.24849 18.4621 1.42747 18.3409 1.625 18.2584C1.82254 18.176 2.0346 18.134 2.24865 18.135H7.68865C7.90253 18.1351 8.11427 18.1776 8.31165 18.26C8.50903 18.3424 8.68814 18.463 8.83865 18.615C9.14192 18.9214 9.31407 19.3339 9.31865 19.765C9.309 20.1951 9.13761 20.6057 8.83865 20.915C8.53119 21.2155 8.11858 21.3841 7.68865 21.385L2.24865 21.375Z" fill="white"/>
</svg>
