<svg width="26" height="24" viewBox="0 0 26 24" fill="none" xmlns="http://www.w3.org/2000/svg">
<path d="M14.1322 2.16537V12.0876C14.0437 12.729 14.158 13.382 14.459 13.9553C14.6403 14.1388 14.8598 14.2799 15.102 14.3687C15.3441 14.4575 15.6029 14.4917 15.8598 14.4689H16.4201V14.9125H9.53295V14.4689H10.0933C10.3719 14.4987 10.6535 14.4564 10.9111 14.346C11.1687 14.2357 11.3935 14.0609 11.5641 13.8385C11.7844 13.2827 11.8723 12.6832 11.8209 12.0876V2.16537M11.8209 3.19261H9.88314C9.33326 3.1637 8.78217 3.21881 8.2489 3.35604C7.81523 3.52403 7.44696 3.82683 7.19832 4.21985C6.87498 4.74909 6.6903 5.35131 6.66135 5.97082H6.21777L6.40454 2.16537H19.782V5.97082H19.3851C19.3514 5.46186 19.2248 4.96337 19.0115 4.50001C18.7916 4.08139 18.4496 3.73946 18.031 3.51946C17.531 3.27407 16.9762 3.16151 16.4201 3.19261H14.0855" fill="white"/>
<path d="M23.9139 18.4961C24.1012 18.5019 24.2792 18.5776 24.4117 18.7077C24.5442 18.8378 24.6213 19.0126 24.6272 19.1965V20.5506C24.6272 20.7363 24.5521 20.9145 24.4183 21.0458C24.2845 21.1772 24.1031 21.251 23.9139 21.251H2.08563C1.99105 21.2542 1.89681 21.2383 1.80876 21.2043C1.72071 21.1703 1.64074 21.1188 1.57383 21.0531C1.50691 20.9874 1.45449 20.9089 1.41982 20.8224C1.38514 20.736 1.36896 20.6434 1.37228 20.5506V19.1965C1.37228 19.0107 1.44744 18.8326 1.58122 18.7012C1.71499 18.5699 1.89644 18.4961 2.08563 18.4961H23.9139ZM23.9139 17.9124H2.08563C1.73878 17.9124 1.40614 18.0477 1.16088 18.2885C0.915617 18.5293 0.777832 18.8559 0.777832 19.1965L0.777832 20.5506C0.777832 20.8911 0.915617 21.2177 1.16088 21.4585C1.40614 21.6993 1.73878 21.8346 2.08563 21.8346H23.9139C24.2607 21.8346 24.5934 21.6993 24.8386 21.4585C25.0839 21.2177 25.2217 20.8911 25.2217 20.5506V19.1965C25.2217 18.8559 25.0839 18.5293 24.8386 18.2885C24.5934 18.0477 24.2607 17.9124 23.9139 17.9124Z" fill="white"/>
</svg>
