<svg width="24" height="24" viewBox="0 0 24 24" fill="none" xmlns="http://www.w3.org/2000/svg">
<path d="M12.8001 11.4507C11.2001 10.4507 7.50014 8.65066 7.30014 8.55066C7.10014 8.55066 6.90014 8.55066 6.80014 8.75066C6.76419 8.78164 6.73534 8.82001 6.71556 8.86315C6.69578 8.9063 6.68555 8.9532 6.68555 9.00066C6.68555 9.04812 6.69578 9.09502 6.71556 9.13817C6.73534 9.18131 6.76419 9.21968 6.80014 9.25066C7.10014 9.65066 9.60014 12.6507 10.8001 13.8507C10.8001 13.9507 10.9001 14.0507 11.0001 14.1507C11.3317 14.4291 11.7602 14.5645 12.1916 14.527C12.6229 14.4895 13.0217 14.2822 13.3001 13.9507C13.5786 13.6191 13.714 13.1906 13.6765 12.7592C13.639 12.3279 13.4317 11.9291 13.1001 11.6507C13.0001 11.5507 12.9001 11.4507 12.8001 11.4507Z" fill="white"/>
<path d="M12 22.0006C10.22 22.0006 8.47991 21.4728 6.99987 20.4839C5.51983 19.4949 4.36628 18.0893 3.68509 16.4448C3.0039 14.8003 2.82567 12.9907 3.17294 11.2448C3.5202 9.499 4.37737 7.89536 5.63604 6.63668C6.89472 5.37801 8.49836 4.52084 10.2442 4.17358C11.99 3.82631 13.7996 4.00454 15.4442 4.68573C17.0887 5.36692 18.4943 6.52047 19.4832 8.00051C20.4722 9.48056 21 11.2206 21 13.0006C21 15.3876 20.0518 17.6768 18.364 19.3646C16.6761 21.0524 14.387 22.0006 12 22.0006ZM12 6.00064C10.6155 6.00064 9.26216 6.41119 8.11101 7.18036C6.95987 7.94953 6.06266 9.04278 5.53285 10.3219C5.00303 11.6009 4.86441 13.0084 5.13451 14.3663C5.4046 15.7241 6.07129 16.9714 7.05026 17.9504C8.02922 18.9294 9.2765 19.596 10.6344 19.8661C11.9922 20.1362 13.3997 19.9976 14.6788 19.4678C15.9579 18.938 17.0511 18.0408 17.8203 16.8896C18.5895 15.7385 19 14.3851 19 13.0006C19 11.1441 18.2625 9.36365 16.9498 8.0509C15.637 6.73814 13.8565 6.00064 12 6.00064Z" fill="white"/>
<path d="M16.1001 5.25066L16.9001 4.05066C16.9741 4.00121 17.0611 3.97482 17.1501 3.97482C17.2391 3.97482 17.3261 4.00121 17.4001 4.05066L18.4001 4.75066C18.6001 4.85066 18.7001 5.15066 18.6001 5.25066L17.7001 6.45066" fill="white"/>
<path d="M17.7003 6.70064C17.6513 6.71481 17.5993 6.71481 17.5503 6.70064C17.4973 6.66086 17.4622 6.60164 17.4528 6.536C17.4435 6.47036 17.4605 6.40369 17.5003 6.35064L18.3903 5.17064C18.3768 5.10995 18.3411 5.05647 18.2903 5.02064L17.2903 4.30064C17.2282 4.28312 17.1624 4.28312 17.1003 4.30064L16.3403 5.46064C16.3219 5.48822 16.2983 5.51191 16.2708 5.53035C16.2432 5.54879 16.2123 5.56163 16.1798 5.56813C16.1473 5.57463 16.1139 5.57467 16.0813 5.56823C16.0488 5.5618 16.0179 5.54903 15.9903 5.53064C15.9627 5.51226 15.9391 5.48862 15.9206 5.46108C15.9022 5.43354 15.8893 5.40264 15.8828 5.37014C15.8763 5.33764 15.8763 5.30418 15.8827 5.27166C15.8892 5.23915 15.9019 5.20822 15.9203 5.18064L16.7203 3.98064C16.8286 3.87788 16.968 3.8142 17.1166 3.79971C17.2651 3.78521 17.4143 3.82074 17.5403 3.90064L18.5403 4.61064C18.6312 4.66271 18.7091 4.73479 18.768 4.82142C18.8269 4.90805 18.8653 5.00696 18.8803 5.11064C18.8959 5.17892 18.8949 5.24992 18.8775 5.31775C18.8601 5.38558 18.8268 5.44828 18.7803 5.50064L17.9003 6.60064C17.8782 6.63295 17.8483 6.65909 17.8133 6.67658C17.7783 6.69408 17.7394 6.70236 17.7003 6.70064Z" fill="white"/>
<path d="M10.2999 1.25066H13.5999C13.6667 1.24624 13.7336 1.25614 13.7963 1.27971C13.859 1.30327 13.9159 1.33995 13.9632 1.38729C14.0106 1.43463 14.0472 1.49154 14.0708 1.55421C14.0944 1.61688 14.1043 1.68385 14.0999 1.75066V2.45066C14.1043 2.51746 14.0944 2.58444 14.0708 2.64711C14.0472 2.70977 14.0106 2.76668 13.9632 2.81402C13.9159 2.86137 13.859 2.89805 13.7963 2.92161C13.7336 2.94517 13.6667 2.95508 13.5999 2.95066H10.2999C10.233 2.95508 10.1661 2.94517 10.1034 2.92161C10.0407 2.89805 9.98383 2.86137 9.93649 2.81402C9.88915 2.76668 9.85247 2.70977 9.8289 2.64711C9.80534 2.58444 9.79543 2.51746 9.79985 2.45066V1.75066C9.89985 1.55066 10.0999 1.25066 10.2999 1.25066Z" fill="white"/>
<path d="M13.6001 3.20065H10.3001C10.2008 3.20341 10.1021 3.1859 10.0098 3.14918C9.9176 3.11247 9.83382 3.05732 9.76362 2.98712C9.69342 2.91692 9.63827 2.83314 9.60156 2.7409C9.56484 2.64866 9.54733 2.54989 9.55009 2.45065V1.64065C9.70009 1.40065 10.0001 1.00065 10.3001 1.00065H13.6001C13.6997 0.996408 13.7991 1.0129 13.892 1.04909C13.985 1.08528 14.0693 1.14037 14.1399 1.21088C14.2104 1.28139 14.2655 1.36578 14.3016 1.45869C14.3378 1.55161 14.3543 1.65103 14.3501 1.75065V2.45065C14.3543 2.55028 14.3378 2.6497 14.3016 2.74261C14.2655 2.83553 14.2104 2.91991 14.1399 2.99042C14.0693 3.06093 13.985 3.11603 13.892 3.15221C13.7991 3.1884 13.6997 3.2049 13.6001 3.20065ZM10.0501 1.81065V2.45065C10.047 2.48425 10.0514 2.51812 10.0628 2.54984C10.0743 2.58157 10.0926 2.61039 10.1165 2.63424C10.1404 2.6581 10.1692 2.67642 10.2009 2.68789C10.2326 2.69937 10.2665 2.70373 10.3001 2.70065H13.6001C13.6337 2.70373 13.6675 2.69937 13.6993 2.68789C13.731 2.67642 13.7598 2.6581 13.7837 2.63424C13.8075 2.61039 13.8259 2.58157 13.8373 2.54984C13.8488 2.51812 13.8532 2.48425 13.8501 2.45065V1.75065C13.8532 1.71705 13.8488 1.68319 13.8373 1.65146C13.8259 1.61973 13.8075 1.59092 13.7837 1.56706C13.7598 1.5432 13.731 1.52489 13.6993 1.51341C13.6675 1.50193 13.6337 1.49758 13.6001 1.50065H10.3101C10.3101 1.50065 10.1601 1.62065 10.0501 1.81065Z" fill="white"/>
<path d="M10.6001 4.25065V2.95065H13.4001V4.25065" fill="white"/>
<path d="M13.6501 4.25065H13.1501V3.20065H10.8501V4.25065H10.3501V2.70065H13.6501V4.25065Z" fill="white"/>
</svg>
