<svg width="24" height="24" viewBox="0 0 24 24" fill="none" xmlns="http://www.w3.org/2000/svg">
<path d="M14.4442 4.30428V3.94949H19.2697V4.30428H18.7598C18.5197 4.30347 18.2834 4.36208 18.0743 4.47436C17.8652 4.58663 17.6904 4.7487 17.5671 4.94463C17.3799 5.38004 17.308 5.8525 17.3577 6.3205V11.5731C17.3981 12.5972 17.2597 13.6206 16.948 14.6017C16.636 15.3637 16.0741 16.01 15.3456 16.4449C14.3701 17.0031 13.2414 17.2713 12.1043 17.215C10.9245 17.2831 9.74896 17.0278 8.71735 16.4795C7.95874 16.0061 7.38335 15.3103 7.07851 14.4979C6.79087 13.4566 6.66812 12.3805 6.71432 11.3048V6.24262C6.78057 5.69763 6.65576 5.14708 6.35923 4.67637C6.21253 4.54032 6.03623 4.4365 5.84274 4.37221C5.64925 4.30792 5.44329 4.28474 5.23936 4.30428H4.72949V3.94949H10.6202V4.30428H10.1013C9.87043 4.28474 9.63816 4.32135 9.42631 4.41067C9.21447 4.49998 9.03002 4.63907 8.89034 4.81483C8.68313 5.26347 8.59857 5.75461 8.64451 6.24262V11.8932C8.64946 12.4727 8.69814 13.0511 8.79019 13.6239C8.84391 14.1601 9.02443 14.6777 9.31826 15.1382C9.60159 15.5115 9.9809 15.8094 10.4199 16.0036C10.9674 16.2537 11.57 16.3754 12.1771 16.3584C13.0118 16.3692 13.8356 16.1787 14.5717 15.8046C15.2006 15.5059 15.7091 15.0196 16.0193 14.42C16.3291 13.4715 16.4586 12.4782 16.4017 11.4865V6.24262C16.4675 5.71962 16.3693 5.1898 16.1195 4.71964C15.9688 4.57386 15.7864 4.46115 15.5851 4.3894C15.3838 4.31766 15.1684 4.2886 14.9541 4.30428H14.4442Z" fill="white"/>
<path fill-rule="evenodd" clip-rule="evenodd" d="M2.93262 19.3005C2.93262 18.8863 3.2684 18.5505 3.68262 18.5505H20.3169C20.7311 18.5505 21.0669 18.8863 21.0669 19.3005C21.0669 19.7147 20.7311 20.0505 20.3169 20.0505H3.68262C3.2684 20.0505 2.93262 19.7147 2.93262 19.3005Z" fill="white"/>
</svg>
