<svg width="24" height="26" viewBox="0 0 24 26" fill="none" xmlns="http://www.w3.org/2000/svg">
<path fill-rule="evenodd" clip-rule="evenodd" d="M6.30223 3.18962L7.6951 8.06468L9.37777 7.58391L7.48866 0.972016L7.48264 0.953979L6.65255 1.23068C7.48264 0.953979 7.48234 0.953085 7.48204 0.95219L7.48144 0.950389L7.4802 0.946754L7.47762 0.939348L7.47206 0.924005C7.46816 0.913547 7.46387 0.902624 7.45915 0.891284C7.44973 0.86861 7.43858 0.844216 7.42541 0.8185C7.39903 0.767001 7.36457 0.710267 7.31981 0.651735C7.22844 0.532249 7.10171 0.415292 6.93358 0.321882C6.59648 0.134605 6.17738 0.0857415 5.69152 0.155151C5.16261 0.230709 4.70542 0.458544 4.46166 0.897318C4.34969 1.09887 4.31404 1.29401 4.30809 1.44264C4.30513 1.51668 4.30938 1.58121 4.31576 1.63312C4.31812 1.65236 4.32081 1.67016 4.32362 1.68642L5.26277 8.36479L6.99572 8.12109L6.30223 3.18962ZM6.03652 1.33385C6.03652 1.33385 6.03652 1.33386 6.03652 1.33385V1.33385ZM6.14776 1.87854C6.14775 1.87856 6.14717 1.87846 6.14604 1.87819L6.14776 1.87854Z" fill="white"/>
<path fill-rule="evenodd" clip-rule="evenodd" d="M15.7727 6.11067C17.3517 5.77382 18.7345 6.97899 19.0369 8.34C19.0396 8.35215 19.0421 8.36435 19.0443 8.3766L21.3439 20.9197C21.682 22.4994 20.4764 23.883 19.1149 24.1856C19.1026 24.1883 19.0902 24.1908 19.0778 24.1931L9.34438 25.9723C9.32138 25.9765 9.29824 25.9799 9.275 25.9825C8.5568 26.0623 7.82602 25.865 7.24928 25.4805C6.6805 25.1014 6.18916 24.4862 6.08339 23.6826L5.11822 18.8567C4.71852 18.7862 4.38656 18.4748 4.30874 18.0533L3.05571 11.266C2.7171 9.68603 3.92281 8.30198 5.28451 7.99938C5.29772 7.99645 5.31098 7.99378 5.32429 7.99139L15.7727 6.11067ZM17.0811 8.75879C16.9602 8.25237 16.4773 8.00279 16.1844 8.06787C16.1712 8.0708 16.158 8.07347 16.1447 8.07586L5.70202 9.95554C5.19647 10.0769 4.94737 10.5593 5.01238 10.8519C5.015 10.8636 5.01739 10.8754 5.01958 10.8872L6.10834 16.7847C6.49662 16.8592 6.81874 17.1613 6.90067 17.5709L8.05194 23.3273C8.05761 23.3556 8.06204 23.3842 8.06524 23.413C8.07796 23.5274 8.15395 23.68 8.35868 23.8164C8.55823 23.9495 8.80857 24.0141 9.02602 23.9974L18.6963 22.2297C19.2026 22.1088 19.4521 21.6259 19.3871 21.3331C19.3844 21.321 19.3819 21.3088 19.3796 21.2965L17.0811 8.75879Z" fill="white"/>
<path fill-rule="evenodd" clip-rule="evenodd" d="M15.5203 9.71947C15.712 9.85109 15.8435 10.0536 15.8856 10.2823L16.6182 14.2594C16.6198 14.2679 16.6212 14.2764 16.6225 14.2849C16.9241 16.2451 15.4017 17.8321 13.4125 18.2074L12.3763 18.4147C10.5068 18.8117 8.50596 17.6436 8.19769 15.8257L7.46629 11.8553C7.37894 11.3811 7.69166 10.9256 8.16556 10.8367L14.8638 9.58082C15.0924 9.53796 15.3286 9.58785 15.5203 9.71947ZM9.34535 12.396L9.91996 15.5153L9.92253 15.53C10.0371 16.2174 10.9595 16.9286 12.0159 16.7022L12.0276 16.6997L13.0846 16.4884C14.4353 16.2351 15.0041 15.3192 14.8945 14.5621L14.3236 11.4626L9.34535 12.396Z" fill="white"/>
<path fill-rule="evenodd" clip-rule="evenodd" d="M15.0872 3.94907C15.4933 3.86783 15.8885 4.13124 15.9697 4.53741L16.2837 6.10732L14.8128 6.4015L14.6459 5.56702L13.4541 5.80539L13.5705 6.67859L12.0836 6.87684L11.8743 5.30693C11.8221 4.91505 12.083 4.5499 12.4707 4.47237L15.0872 3.94907Z" fill="white"/>
<path fill-rule="evenodd" clip-rule="evenodd" d="M4.27761 8.61926C4.82121 8.52169 5.34097 8.88327 5.43854 9.42687L6.90379 17.5904C7.00136 18.134 6.63978 18.6538 6.09618 18.7513C5.55259 18.8489 5.03282 18.4873 4.93525 17.9437L3.47 9.7802C3.37243 9.2366 3.73401 8.71683 4.27761 8.61926Z" fill="white"/>
</svg>
