<svg width="24" height="24" viewBox="0 0 24 24" fill="none" xmlns="http://www.w3.org/2000/svg">
<g clip-path="url(#clip0_764_5579)">
<path d="M-3.50146 15.5198H3.13854C3.70096 15.5211 4.25811 15.4113 4.77798 15.1967C5.29785 14.9821 5.7702 14.6669 6.16789 14.2692C6.56559 13.8715 6.8808 13.3991 7.09543 12.8792C7.31005 12.3594 7.41985 11.8022 7.41854 11.2398C7.41854 10.6782 7.30776 10.1221 7.09255 9.60343C6.87733 9.08472 6.56191 8.61355 6.16435 8.21691C5.76678 7.82028 5.29488 7.50596 4.77566 7.29196C4.25645 7.07796 3.70012 6.96848 3.13854 6.9698H-3.50146" fill="#D4D4D4"/>
<path d="M11.9387 15.2098H10.1387V6.09979H11.9387V15.2098ZM13.7587 10.5898L11.6487 12.8398L11.3387 11.0998L12.7787 9.16979L15.1987 6.09979H17.3887L13.7587 10.5898ZM12.6187 10.9898L13.9087 9.82979L17.4987 15.2098H15.3887L12.6187 10.9898Z" fill="white"/>
<path d="M17.8785 11.7798C17.8655 11.1572 17.9777 10.5382 18.2085 9.9598C18.4032 9.47691 18.7287 9.05789 19.1485 8.7498C19.5777 8.45636 20.0887 8.30588 20.6085 8.3198C21.0035 8.30551 21.3957 8.39152 21.7485 8.5698C22.0587 8.73253 22.3208 8.97392 22.5085 9.2698C22.7221 9.60579 22.8808 9.97376 22.9785 10.3598C23.0974 10.8097 23.1843 11.2676 23.2385 11.7298V11.9898C23.1799 12.5757 23.0419 13.151 22.8285 13.6998C22.6517 14.1656 22.3592 14.5786 21.9785 14.8998C21.584 15.2032 21.0957 15.3588 20.5985 15.3398C20.079 15.3521 19.5697 15.1941 19.1485 14.8898C18.7305 14.5756 18.4057 14.154 18.2085 13.6698C17.9814 13.1112 17.8692 12.5127 17.8785 11.9098V11.7798ZM23.9985 8.4398V14.9898C24.0175 15.5406 23.8788 16.0853 23.5985 16.5598C23.3303 16.9987 22.9367 17.347 22.4685 17.5598C21.9427 17.7918 21.3731 17.9077 20.7985 17.8998C20.5013 17.896 20.2058 17.8557 19.9185 17.7798C19.5997 17.708 19.2932 17.5901 19.0085 17.4298C18.723 17.283 18.4737 17.0746 18.2785 16.8198L19.0485 15.8198C19.2594 16.0606 19.5182 16.2548 19.8085 16.3898C20.0918 16.5272 20.4036 16.5957 20.7185 16.5898C20.933 16.5884 21.1452 16.5443 21.3426 16.4602C21.54 16.3761 21.7188 16.2536 21.8685 16.0998C22.0095 15.9472 22.1178 15.7673 22.1866 15.5712C22.2554 15.3752 22.2832 15.1671 22.2685 14.9598V9.9598L22.4385 8.3998L23.9985 8.4398ZM19.5985 11.9098C19.5969 12.2488 19.6475 12.5861 19.7485 12.9098C19.8334 13.1925 19.9963 13.4455 20.2185 13.6398C20.4502 13.8259 20.7415 13.9218 21.0385 13.9098C21.3234 13.9221 21.6054 13.849 21.8485 13.6998C22.065 13.5499 22.2348 13.3419 22.3385 13.0998C22.4539 12.8297 22.5248 12.5426 22.5485 12.2498V11.4298C22.5322 11.193 22.492 10.9585 22.4285 10.7298C22.3679 10.5346 22.2731 10.3517 22.1485 10.1898C22.0231 10.0403 21.8659 9.92076 21.6885 9.8398C21.4859 9.75522 21.2679 9.71433 21.0485 9.7198C20.7517 9.70956 20.461 9.80527 20.2285 9.9898C20.0061 10.1899 19.8406 10.4452 19.7485 10.7298C19.649 11.0538 19.5985 11.3909 19.5985 11.7298V11.9098Z" fill="white"/>
</g>
<defs>
<clipPath id="clip0_764_5579">
<rect width="24" height="24" fill="white"/>
</clipPath>
</defs>
</svg>
